<svg id="레이어_1" data-name="레이어 1" xmlns="http://www.w3.org/2000/svg" viewBox="0 0 354 299"><defs><style>.cls-1,.cls-5,.cls-6{fill:#d268cc;}.cls-2,.cls-7{fill:#fff;}.cls-2{opacity:0.75;}.cls-3,.cls-6{opacity:0.2;}.cls-4{fill:#8c15d1;}.cls-5{opacity:0.3;}.cls-12,.cls-7{opacity:0.4;}.cls-8{opacity:0.6;}.cls-9{fill:#853add;}.cls-10{opacity:0.7;}.cls-11{opacity:0.1;}.cls-13{opacity:0.5;}</style></defs><g id="Saturn"><g id="Planet"><ellipse class="cls-1" cx="170.9" cy="141.05" rx="101.76" ry="102.94"/><ellipse class="cls-2" cx="170.9" cy="141.05" rx="101.76" ry="102.94"/><g class="cls-3"><path class="cls-4" d="M87.35,155.59c8.34-1.41,16.62-3.26,24.82-5.36s16.28-4.48,24.29-7.16c8.19-2.74,16.58-6.92,25.35-7,7.65-.05,14.94,1.1,22.6-.06A75.48,75.48,0,0,0,206,129.12c14.26-7,26.09-17.79,36.61-29.58,4.49-5,8.76-10.25,13-15.53-1.56-2.37-3.2-4.68-4.94-6.9-4.31,5.4-8.64,10.79-13.18,16-9.53,10.93-20.22,21.19-33,28.07a67.87,67.87,0,0,1-21,7.4c-7.78,1.28-15.32-.32-23.09,0-8,.29-15.36,3.51-22.79,6.17s-15,5.07-22.62,7.22c-8.82,2.49-17.73,4.54-26.69,6.41-5.55,1.16-11.14,2.11-16.73,3-.61.11-1.24.2-1.86.3.22,2.14.49,4.28.85,6.42C76.21,157.62,81.9,156.52,87.35,155.59Z"/><path class="cls-4" d="M98.43,130.44a134.62,134.62,0,0,0,36.93-13.07c11.12-5.8,22-14.92,35.46-13,9.48,1.38,21.63.39,30.12-4.41,11.63-6.59,22.84-15.29,31.2-25.82,2.38-3,5.14-5.85,7.66-8.85-2.06-1.91-4.17-3.75-6.37-5.48-.59.75-1.17,1.47-1.76,2.14-2.1,2.4-4.25,4.77-6.41,7.12-4.68,5.13-8.86,10.57-14.58,14.57-6.06,4.24-12.63,8.23-19.62,10.66-4,1.38-15.65,4.45-18.41-.66-.73-1.35.43-2.92,1.51-4,9.06-9.2,18.71-17.89,26.09-28.55a32.24,32.24,0,0,0,4.69-8.49,26.42,26.42,0,0,0,1-6.51,12.25,12.25,0,0,0-.07-1.72c-1.78-.66-3.57-1.27-5.39-1.83-.05.22-.1.41-.15.64-1.37,7.37-7.85,15.44-12.29,21.31-6.23,8.22-14.07,15-21.88,21.64-18.63,15.8-39.34,28.77-63.13,35-10.87,2.86-21.59,3.53-32.56,3.38-.4,2.49-.72,5-.94,7.54A99.72,99.72,0,0,0,98.43,130.44Z"/><path class="cls-4" d="M129.39,95.82C147.7,87.93,166.15,77,179.9,62.24A57,57,0,0,0,188.77,50a32.45,32.45,0,0,0,3.54-9.53c-1.57-.34-3.14-.65-4.73-.92-.07.25-.13.49-.22.75a42.89,42.89,0,0,1-2.47,5.85,54.8,54.8,0,0,1-7.83,11.2c-6.35,7.14-14,12.85-21.95,18.06a182,182,0,0,1-56.75,25,175.87,175.87,0,0,1-22.52,3.94c-.68,1.82-1.31,3.65-1.89,5.51A183.26,183.26,0,0,0,129.39,95.82Z"/><path class="cls-4" d="M90.67,86.24a82.87,82.87,0,0,0,18.75-2.43c11.75-2.9,22.76-8,33.29-13.9s21.51-12.15,30.44-20.33a44,44,0,0,0,8.77-10.86q-4.44-.49-8.94-.59a49.73,49.73,0,0,1-9,9.13c-8.64,6.89-18.52,12.71-28.2,18S116,75,105.29,77.34a76.32,76.32,0,0,1-15.72,1.88c-1.64,2.21-3.22,4.48-4.68,6.82C86.81,86.17,88.74,86.26,90.67,86.24Z"/><path class="cls-4" d="M264.74,163.76A131.19,131.19,0,0,1,239.36,194c-9.71,8.5-22.07,17.6-35.54,17.32-6.88-.14-12.46-4.67-19.34-4.83-7.44-.18-14.49,3.46-21.3,6a259.81,259.81,0,0,1-26.4,8.32A154,154,0,0,1,112.05,225q4.1,2.94,8.47,5.47a145.78,145.78,0,0,0,24.87-4.5c8.09-2.18,16-4.86,23.89-7.77a92.19,92.19,0,0,1,10.94-3.74c2.7-.63,14.78.44,13.21,4.58-.94,2.48-6.08,4-8.19,5.11-3.16,1.68-6.29,3.4-9.42,5.13-7,3.86-14.08,7.74-21.39,11-1.24.56-2.51,1.07-3.77,1.59A100.14,100.14,0,0,0,162,243.6c5.83-2.66,11.49-5.67,17.12-8.74,9-4.92,18.65-9.48,28.15-13.75s19.46-7.81,28.08-13.82A131.39,131.39,0,0,0,266.59,176h0a103.72,103.72,0,0,0,5.77-26.74A129,129,0,0,1,264.74,163.76Z"/><path class="cls-4" d="M141.06,155.37A137,137,0,0,1,116.54,167a215.57,215.57,0,0,1-24.78,7.12c-4.82,1.12-9.68,2.07-14.54,3l-1.52.3c.78,2.1,1.6,4.17,2.51,6.2,4.63-.54,9.23-1.28,13.81-2.13a174.77,174.77,0,0,0,27.17-7.27,132.37,132.37,0,0,0,25.07-11.92c7.52-4.66,14.32-10.75,22.92-13.33.95-.28.45-2.11-.37-2.26C157.18,145,148.94,150.57,141.06,155.37Z"/><path class="cls-4" d="M177.37,187.69a433.36,433.36,0,0,0,43.82-25.39c13.7-8.93,26.14-19.09,36.32-32.05,4.14-5.26,7.87-10.85,11.49-16.5q-1.35-5-3.16-9.73c-4,6.07-8,12.1-12.37,17.9a139.17,139.17,0,0,1-33.33,31.69,426.23,426.23,0,0,1-40.37,24.11c-14,7.4-28.52,13.79-43.88,17.58a128.47,128.47,0,0,1-24.51,3.79A146.44,146.44,0,0,1,86,197.78c1.45,2.23,3,4.38,4.59,6.47,12.89,3,26.73,2.22,39.6,0C146.63,201.33,162.43,195.11,177.37,187.69Z"/><path class="cls-4" d="M198,150.23c-8.12,5-16.58,10.13-25.43,13.69-.28.12-.27.88.09.77,9.13-2.77,18-5.56,26.45-10.05a142.29,142.29,0,0,0,23.08-15.1,168.44,168.44,0,0,0,35.64-39.61c1.25-1.93,2.43-3.9,3.59-5.88-1-2-2.1-3.92-3.22-5.82C244,113.74,222.88,134.92,198,150.23Z"/><path class="cls-4" d="M267.07,133c-5.25,7.63-11.17,14.79-17.11,21.87a111.92,111.92,0,0,1-22.2,20.68c-4,2.78-8.18,5.35-12.36,7.88-2.48,1.49-5.09,2.77-7.55,4.31-2.22,1.39-4.88,2.28-6.92,3.9-.74.59-.07,2.65.92,2.54,2.51-.25,4.72-1.41,7.13-2.06a62.42,62.42,0,0,0,7.12-2.35,100.31,100.31,0,0,0,15.26-7.57c9.38-5.8,17.33-13.52,24.48-21.91,5.82-6.84,11.67-13.82,16.82-21.23a105.2,105.2,0,0,0-1.15-13.28C270.13,128.29,268.67,130.71,267.07,133Z"/></g><path class="cls-5" d="M163.65,38.36c38.33-1,87,58.29,76.21,117.14-11.42,62.57-85.28,90.73-126.09,70.69h0a100.5,100.5,0,0,0,79.57,15.26c54.82-12.52,89.22-67.63,76.85-123.08C258.93,68.05,213,34.73,163.65,38.36Z"/><path class="cls-6" d="M193.31,241.46c54.82-12.52,89.22-67.63,76.85-123.08A102.45,102.45,0,0,0,204,43.71c4,1.46,54.5,19.78,57.47,92.88,3.09,76.11-68.17,104.86-84,107.19A101.41,101.41,0,0,0,193.31,241.46Z"/><path class="cls-7" d="M146.18,80a15.91,15.91,0,0,0-19-12.16,16.1,16.1,0,0,0-12,19.25,15.91,15.91,0,0,0,19,12.16A16.1,16.1,0,0,0,146.18,80ZM103.53,104.6a27.69,27.69,0,0,0-20.67,33.1,27.36,27.36,0,0,0,32.72,20.91,27.7,27.7,0,0,0,20.67-33.1A27.37,27.37,0,0,0,103.53,104.6Zm51.52-.64a12.68,12.68,0,0,0-9.47,15.16,12.52,12.52,0,0,0,15,9.57A12.68,12.68,0,0,0,170,113.53,12.52,12.52,0,0,0,155.05,104Z"/></g><g id="Rings"><g class="cls-8"><path class="cls-9" d="M115.82,230.66c1.23-.33,2.48-.69,3.74-1.08,54-16,119.85-65.4,150.61-113.11.75-1.08,1.43-2.21,2.13-3.32,30.48-49.8,9.82-77.94-46.13-62.8-1.44.4-2.9.81-4.37,1.26a100.94,100.94,0,0,1,13,8.93c18.87.49,27.78,11.05,24.43,28.52-1.37,7.24-4.83,15.62-10.55,25-24.39,39.87-80.43,82-125.22,94-10.5,2.81-19.43,3.73-26.66,3-17.51-1.8-25-13.51-20-31.92q-1.76-4.43-3.11-9.1c-.59-2-1.13-4.07-1.56-6.11-.86,1.29-1.69,2.6-2.47,3.9C39.2,217.64,59.86,245.78,115.82,230.66Z"/></g><g class="cls-10"><path class="cls-9" d="M108.09,259.19a254.77,254.77,0,0,0,44.37-17c43.24-20.94,87.76-54.37,120.11-90.19a259.31,259.31,0,0,0,29-38c37.67-61.57,12.14-96.36-57-77.68a238.43,238.43,0,0,0-31.2,11c2.06.92,4.1,2,6.06,3.05,3.36-1.16,6.7-2.17,10-3.06,58.46-15.79,80,13.61,48.2,65.63-1.89,3.12-4,6.22-6.16,9.34-32.23,46.05-93.93,92.36-146.78,110.23-3.55,1.21-7.1,2.28-10.56,3.22C55.56,251.44,34,222,65.86,170c1.78-2.92,3.71-5.84,5.75-8.77-.47-2.25-.84-4.47-1.12-6.73a239.9,239.9,0,0,0-19.42,27C13.35,243.1,38.88,277.88,108.09,259.19Z"/></g><path class="cls-9" d="M236.33,43.59c9.87-2.49,20-4.16,30.17-3.79a55.61,55.61,0,0,1,14.9,2.55,32.94,32.94,0,0,1,12.91,7.52,29.18,29.18,0,0,1,7.63,12.76,41.48,41.48,0,0,1,1.16,15c-.94,10.14-4.63,19.85-9.15,28.94-9.36,18.15-22.2,34.33-36.19,49.14A366.07,366.07,0,0,1,212,196.28a364.47,364.47,0,0,1-51.59,32.58c-18.06,9.28-37.09,17-57,20.88-9.92,1.8-20.14,2.64-30.07.92a43.28,43.28,0,0,1-14.13-4.87,28.18,28.18,0,0,1-10.59-10.37A31,31,0,0,1,44.53,221a53.46,53.46,0,0,1,1.58-15.2c2.47-10,7-19.32,12.18-28.15-5.38,8.72-10.09,18-12.79,28A53.52,53.52,0,0,0,43.59,221a32,32,0,0,0,4,15,29.42,29.42,0,0,0,11,11,44.7,44.7,0,0,0,14.58,5.22c10.19,1.89,20.6,1.14,30.7-.57a169.09,169.09,0,0,0,29.58-8.28A263.55,263.55,0,0,0,161.48,231a365.66,365.66,0,0,0,52.07-32.61,367.19,367.19,0,0,0,45.9-41,268.8,268.8,0,0,0,19.91-23.6,169.22,169.22,0,0,0,16.35-26.28c4.49-9.3,8.15-19.23,9-29.69a43.2,43.2,0,0,0-1.38-15.59,30.45,30.45,0,0,0-8.16-13.27,34,34,0,0,0-13.48-7.5,56.23,56.23,0,0,0-15.17-2.27C256.27,39,246.15,40.9,236.33,43.59Z"/><path class="cls-9" d="M244.84,52.7c7,.36,14.15,2,19.7,6.36l2,1.64,1.72,2,.86,1c.25.36.45.75.68,1.12L271.18,67a27.88,27.88,0,0,1,2.48,10.11c.44,7-1.21,14-3.66,20.58s-5.94,12.77-9.62,18.77a206.28,206.28,0,0,1-26.71,32.68,291.23,291.23,0,0,1-31.82,27.74A296.87,296.87,0,0,1,166.59,200a212.85,212.85,0,0,1-38.48,16.85,111.6,111.6,0,0,1-20.46,4.42c-6.91.78-14,.78-20.73-1a30.44,30.44,0,0,1-4.92-1.7l-2.37-1.08c-.75-.43-1.45-.94-2.18-1.41a24,24,0,0,1-4-3.34,23.16,23.16,0,0,1-1.62-2,10,10,0,0,1-1.43-2.19c-3.42-6.18-3.82-13.7-2.5-20.64-1.47,6.91-1.28,14.47,2.06,20.89A11,11,0,0,0,71.37,211,22.67,22.67,0,0,0,73,213.16a24.64,24.64,0,0,0,4,3.54c.74.5,1.45,1,2.22,1.5l2.41,1.18a31,31,0,0,0,5,1.86c6.88,1.95,14.11,2,21.13,1.34a113.09,113.09,0,0,0,20.78-4.2c13.59-4,26.49-10,38.92-16.72a296.35,296.35,0,0,0,35.6-23.09A292.1,292.1,0,0,0,235,150.5c9.91-10.14,19.17-21.05,26.71-33.15,3.65-6.12,7.17-12.38,9.51-19.17s4-13.89,3.45-21.12a28.45,28.45,0,0,0-2.82-10.37l-1.43-2.29c-.24-.38-.46-.78-.73-1.14l-.9-1-1.81-2-2.13-1.63C259.06,54.37,251.81,52.9,244.84,52.7Z"/><g class="cls-11"><path class="cls-9" d="M104.8,289.4c26.19-6.95,54.58-19.6,82.49-36a497.17,497.17,0,0,0,85.46-63.62c23.78-22.1,44.2-45.78,58.55-69a181,181,0,0,0,15.76-31.6c13.53-36.57,3.9-58.19-6.56-69.92C322.86-.53,289.91-5.24,247.72,5.93c-18.08,4.79-37.23,12.31-56.53,21.9,1.55.27,3.11.62,4.63,1a297.62,297.62,0,0,1,52.63-20c41.09-10.91,73-6.5,89.95,12.41,9.9,11.11,19,31.74,6,66.94a178,178,0,0,1-15.51,31.09c-13.25,21.44-31.7,43.27-53.24,63.86a490.31,490.31,0,0,1-95.49,71.15c-25.82,14.64-51.89,26-76,32.39C63,297.52,31,293.11,14.15,274.18c-9.94-11.1-19-31.74-6-66.89A175.15,175.15,0,0,1,23.7,176.17a301.06,301.06,0,0,1,34.49-44.85c.12-1.57.27-3.15.46-4.72-14.77,15.77-27.5,32-37.38,48A179.74,179.74,0,0,0,5.46,206.28C-8,242.81,1.57,264.44,12,276.13,29.64,295.89,62.62,300.61,104.8,289.4Z"/></g><g class="cls-3"><path class="cls-9" d="M107.86,275.39c21-5.58,43.51-15.15,66-27.46a455.87,455.87,0,0,0,97.78-72.85c18.29-18,34-36.94,45.53-55.58a164.75,164.75,0,0,0,14.31-28.66c11.75-31.76,3.72-50.16-5.09-60C311.21,13.84,282.21,10,244.68,20a271.08,271.08,0,0,0-46,17.22c1.29.31,2.61.69,3.89,1.12a266.38,266.38,0,0,1,42.73-15.73c36.5-9.7,64.57-6.13,79,10.05,8.3,9.3,15.84,26.79,4.57,57.24a161,161,0,0,1-14.07,28.18c-10.65,17.25-25,34.77-41.61,51.58A449.62,449.62,0,0,1,168.17,247.9c-20.8,11.06-41.55,19.67-61,24.85-36.51,9.69-64.58,6.12-79-10.05-8.33-9.28-15.84-26.76-4.59-57.19A160,160,0,0,1,37.7,177.29a268.65,268.65,0,0,1,27.47-36.55c0-1.37,0-2.75.08-4.12a276.38,276.38,0,0,0-29.83,39.23,160.64,160.64,0,0,0-14.35,28.71c-11.73,31.7-3.71,50.13,5.11,60C41.31,281.49,70.31,285.33,107.86,275.39Z"/></g><g class="cls-12"><path class="cls-9" d="M109.32,265.19c17.28-4.58,35.65-12,54.12-21.59a425.88,425.88,0,0,0,107.15-79.81c14.51-15,27-30.56,36.52-45.92a151.81,151.81,0,0,0,13.27-26.58c10.37-28,3.6-43.89-3.9-52.3-13.17-14.74-39.19-17.87-73.25-8.84a249.75,249.75,0,0,0-38,13.78c1.18.39,2.34.83,3.48,1.31a243.63,243.63,0,0,1,35.22-12.55c33.08-8.79,58.19-5.92,70.7,8.07,7,7.86,13.29,22.83,3.38,49.62a147.92,147.92,0,0,1-13.05,26.1,269.27,269.27,0,0,1-33.39,42.62c-31.18,33.06-72.39,63.74-112.85,84-17.08,8.58-34,15.29-50,19.54-33.1,8.76-58.21,5.88-70.7-8.09-7-7.87-13.28-22.84-3.39-49.58a146.86,146.86,0,0,1,13.09-26.14,246.83,246.83,0,0,1,22.26-30.25c-.1-1.23-.16-2.48-.19-3.72a251.88,251.88,0,0,0-24.26,32.58A149.8,149.8,0,0,0,32.14,204.1c-10.35,28-3.6,43.83,3.9,52.24C49.21,271.08,75.22,274.24,109.32,265.19Z"/></g><g class="cls-13"><path class="cls-9" d="M108,260.14a257.11,257.11,0,0,0,46.23-17.69c42.36-20.66,85.92-53.08,118-87.89a261.46,261.46,0,0,0,30.53-39.46,147.44,147.44,0,0,0,12.84-25.71c6.9-18.65,6.62-34-1.11-44.67-11.05-15.16-35.89-18.54-70-9.5A237.52,237.52,0,0,0,212,46.62l3.19,1.46a231.51,231.51,0,0,1,30-10.35C278.15,29,302,32,312.38,46.27s6.19,38.23-11.83,67.44a254.64,254.64,0,0,1-27.83,36.5C239.86,186.62,194.09,220.7,150,241.62a250.65,250.65,0,0,1-42.61,16c-33,8.75-56.84,5.7-67.21-8.56-7.18-9.88-7.37-24.38-.83-42.08A144,144,0,0,1,52,181.61a235.24,235.24,0,0,1,18.63-25.85c-.15-1.17-.29-2.34-.43-3.54a243.07,243.07,0,0,0-20.39,28A146.75,146.75,0,0,0,36.91,206c-6.88,18.6-6.56,34,1.14,44.59C49.13,265.78,74,269.19,108,260.14Z"/></g></g></g></svg>