<svg id="레이어_1" data-name="레이어 1" xmlns="http://www.w3.org/2000/svg" viewBox="0 0 180 177"><defs><style>.cls-1{opacity:0.5;}.cls-2{fill:#e1e1e1;}.cls-3,.cls-7{opacity:0.4;}.cls-4,.cls-8{opacity:0.2;}.cls-5,.cls-6{opacity:0.1;}.cls-7{fill:#fff;}</style></defs><g id="Mercury"><g id="Rings"><g class="cls-1"><path class="cls-2" d="M92.9,154.47a62.39,62.39,0,0,1-29-7.19,63.33,63.33,0,0,1-31.29-37.72C22.21,75.89,40.82,39.94,74.1,29.42a62.22,62.22,0,0,1,48,4.24,63.4,63.4,0,0,1,31.29,37.72c10.4,33.67-8.21,69.62-41.5,80.14A62.65,62.65,0,0,1,92.9,154.47ZM74.32,30.12l.22.71C42,41.11,23.86,76.23,34,109.12A61.88,61.88,0,0,0,64.58,146a60.78,60.78,0,0,0,46.82,4.15c32.51-10.28,50.68-45.4,40.52-78.29A61.82,61.82,0,0,0,121.36,35a60.73,60.73,0,0,0-46.82-4.15Z"/></g><g class="cls-3"><path class="cls-2" d="M92.9,159.1a66.88,66.88,0,0,1-31.11-7.71,68,68,0,0,1-33.56-40.45C17.08,74.84,37,36.28,72.73,25h0a66.73,66.73,0,0,1,51.42,4.56A67.93,67.93,0,0,1,157.71,70c11.15,36.1-8.81,74.66-44.5,85.95A67.28,67.28,0,0,1,92.9,159.1ZM73.18,26.41c-34.92,11-54.45,48.76-43.53,84.09a66.44,66.44,0,0,0,32.83,39.58,65.28,65.28,0,0,0,50.29,4.45c34.92-11,54.44-48.77,43.52-84.09a66.45,66.45,0,0,0-32.82-39.58,65.25,65.25,0,0,0-50.29-4.45Z"/></g><g class="cls-4"><path class="cls-2" d="M92.89,164.82a72.42,72.42,0,0,1-33.7-8.35,73.56,73.56,0,0,1-36.35-43.83C10.75,73.53,32.38,31.76,71,19.54l.23.7-.23-.7a72.25,72.25,0,0,1,55.71,4.93A73.56,73.56,0,0,1,163.1,68.3c12.09,39.11-9.53,80.88-48.2,93.1A72.82,72.82,0,0,1,92.89,164.82ZM93.05,17.6A71.42,71.42,0,0,0,71.49,21h0c-37.89,12-59.08,52.92-47.24,91.26a72.15,72.15,0,0,0,35.63,43A70.79,70.79,0,0,0,114.45,160c37.9-12,59.09-52.92,47.24-91.26a72.15,72.15,0,0,0-35.63-42.95A71,71,0,0,0,93.05,17.6Z"/></g><g class="cls-5"><path class="cls-2" d="M92.88,171.94A79.46,79.46,0,0,1,56,162.79a80.63,80.63,0,0,1-39.83-48C2.88,71.91,26.58,26.14,69,12.75a79.19,79.19,0,0,1,61,5.4,80.65,80.65,0,0,1,39.84,48c13.24,42.86-10.46,88.63-52.82,102A79.81,79.81,0,0,1,92.88,171.94ZM69.17,13.45l.22.71C27.8,27.31,4.54,72.25,17.54,114.33a79.18,79.18,0,0,0,39.11,47.15,77.7,77.7,0,0,0,59.9,5.3c41.59-13.15,64.85-58.09,51.85-100.17a79.2,79.2,0,0,0-39.1-47.15,77.73,77.73,0,0,0-59.91-5.3Z"/></g></g><g id="Planet"><path class="cls-2" d="M75.65,34.41c30.6-9.68,63.17,7.57,72.74,38.53s-7.48,63.91-38.09,73.59S47.12,139,37.55,108,45,44.09,75.65,34.41Z"/><path class="cls-6" d="M126.24,92.41c-5.32-1.84-11.86-.53-15.33,3.94-1.57,2-2.52,4.61-4.59,6.1-3.17,2.26-7.64,1-10.89-1.1s-6-5.11-9.63-6.54a12.9,12.9,0,0,0-10.09.29,6.75,6.75,0,0,0-2.84,2.19c-1.79,2.56-.71,6.07.43,9l4.76,12.18c1.26,3.22,2.46,7.11.48,9.94-1.12,1.59-3,2.43-4.38,3.78-3.22,3.13-3.17,8.65-.85,12.51a15,15,0,0,0,.94,1.37,57.12,57.12,0,0,0,36.05.47,57.91,57.91,0,0,0,32.46-25.86l-.06-.47c-.84-5.62-1.95-11.29-4.48-16.38S131.57,94.25,126.24,92.41Z"/><path class="cls-6" d="M136.61,79a17.23,17.23,0,0,0-.46-7.51c-1.76-7.35-5.86-14.92-12.94-17.33-3-1-6.36-1.09-8.74-3.13s-3-5.38-3-8.49c0-2.57.39-5.14.27-7.69a57.11,57.11,0,0,0-36.07-.48A57.88,57.88,0,0,0,44.93,57.5,14.79,14.79,0,0,0,52.7,61c5.7.69,11.87-1.78,17,.76,7.76,3.8,7.76,16,14.94,20.77,5,3.37,11.7,2,17.42.12s11.94-4.06,17.59-2c4.18,1.55,8.16,5.39,12.4,4A7.41,7.41,0,0,0,136.61,79Z"/><path class="cls-6" d="M54.2,93.57c-1.63-5.07.14-10.84-1.75-15.83-2-5.35-7.48-8.09-13.11-9.76a59.18,59.18,0,0,0,10.35,61.64A26.8,26.8,0,0,0,58.58,128c5.23-1.92,10.3-6.23,10.44-11.85.11-4.63-3.1-8.61-6.39-11.82S55.62,98,54.2,93.57Z"/><path class="cls-6" d="M84.16,32.41c21.76-2.34,52.12,29.09,48.7,63.06-3.65,36.12-44.37,55.58-68.49,46.09h0a57.3,57.3,0,0,0,46,5c30.61-9.68,47.66-42.63,38.09-73.59A58,58,0,0,0,84.16,32.41Z"/><path class="cls-6" d="M110.3,146.53c30.61-9.68,47.66-42.63,38.09-73.59a58.32,58.32,0,0,0-41-39.38c2.35.65,31.91,8.71,36.93,50.15,5.23,43.14-34,62.81-42.9,64.88A56.93,56.93,0,0,0,110.3,146.53Z"/><path class="cls-7" d="M76.13,56.88a9.06,9.06,0,0,0-11.38-6,9.2,9.2,0,0,0-6,11.51,9.07,9.07,0,0,0,11.38,6A9.22,9.22,0,0,0,76.13,56.88ZM53,72.89A15.82,15.82,0,0,0,42.75,92.68,15.58,15.58,0,0,0,62.31,103,15.84,15.84,0,0,0,72.56,83.25,15.58,15.58,0,0,0,53,72.89Zm29.27-2.78a7.26,7.26,0,0,0-4.69,9.07,7.14,7.14,0,0,0,9,4.75,7.26,7.26,0,0,0,4.69-9.07A7.14,7.14,0,0,0,82.26,70.11Z"/><g class="cls-4"><path d="M111.2,57.83c-4.17,1.32-13.33,1-15.73-2.56-.84-1.24-1.21-3.35,1.84-6.34,3.51-3.45,12.73-2.16,16.32,1.32a4,4,0,0,1,.25,6,5.22,5.22,0,0,1-1.81,1.25h0A7.22,7.22,0,0,1,111.2,57.83Zm-10.71-9A5.41,5.41,0,0,0,98.33,50c-1.85,1.82-2.4,3.31-1.64,4.42,2,3,11.35,3.33,14.76,1.73a4,4,0,0,0,1.33-.88,2.52,2.52,0,0,0-.17-3.94C110.09,48.88,104.2,47.61,100.49,48.79Z"/></g><g class="cls-4"><path d="M106.74,139.12a14.29,14.29,0,0,1-6.35.66A9.12,9.12,0,0,1,94,135.92a6.11,6.11,0,0,1,.59-8h0A9.74,9.74,0,0,1,100,125.2c2.8-.46,7.56,1.42,10.2,4,1.61,1.59,2.35,3.3,2.13,5-.26,2-1.92,3.59-4.68,4.62ZM99,127a7.82,7.82,0,0,0-3.34,2h0a4.57,4.57,0,0,0-.42,6.11,7.73,7.73,0,0,0,5.38,3.2,13.5,13.5,0,0,0,6.58-.9c1.29-.48,3.49-1.56,3.73-3.41a4.72,4.72,0,0,0-1.7-3.71c-2.53-2.49-6.8-4-8.94-3.61A9.3,9.3,0,0,0,99,127Z"/></g><path class="cls-2" d="M117.25,87.85l-.09.06c-3.42,2-2.11,5.92-2.6,9.16a5.11,5.11,0,0,0,.07,2.52,3.57,3.57,0,0,0,4,2,7.56,7.56,0,0,0,4-2.53,10,10,0,0,0,2.94-6.21C125.76,87.66,121.41,85.54,117.25,87.85Zm-6-10.09c-1.39-6.09-9.33-13.2-15.91-12.48-6.92.76-12.57,11.55-10.64,17.9,1,3.22,4,5.48,7.24,6.3a22.43,22.43,0,0,0,9.91-.24c3.42-.69,7.13-1.93,8.81-5A9.32,9.32,0,0,0,111.2,77.76ZM54.89,93.24a3,3,0,0,0-3.08,3.46,3.35,3.35,0,0,0,4.43,2.39,3.26,3.26,0,0,0,1.33-4.51A3,3,0,0,0,54.89,93.24Zm17.74,30.88a3.47,3.47,0,0,0-1.66.13c-1.79.59-3.65,2.91-1.41,4.45A3.09,3.09,0,0,0,72,129c1.87-.38,3.84-2.88,1.68-4.44A2.46,2.46,0,0,0,72.63,124.12Z"/><path class="cls-8" d="M117.25,87.85l-.09.06c-3.42,2-2.11,5.92-2.6,9.16a5.11,5.11,0,0,0,.07,2.52,3.57,3.57,0,0,0,4,2,7.56,7.56,0,0,0,4-2.53,10,10,0,0,0,2.94-6.21C125.76,87.66,121.41,85.54,117.25,87.85Zm-6-10.09c-1.39-6.09-9.33-13.2-15.91-12.48-6.92.76-12.57,11.55-10.64,17.9,1,3.22,4,5.48,7.24,6.3a22.43,22.43,0,0,0,9.91-.24c3.42-.69,7.13-1.93,8.81-5A9.32,9.32,0,0,0,111.2,77.76ZM54.89,93.24a3,3,0,0,0-3.08,3.46,3.35,3.35,0,0,0,4.43,2.39,3.26,3.26,0,0,0,1.33-4.51A3,3,0,0,0,54.89,93.24Zm17.74,30.88a3.47,3.47,0,0,0-1.66.13c-1.79.59-3.65,2.91-1.41,4.45A3.09,3.09,0,0,0,72,129c1.87-.38,3.84-2.88,1.68-4.44A2.46,2.46,0,0,0,72.63,124.12Z"/></g></g></svg>