<svg id="레이어_1" data-name="레이어 1" xmlns="http://www.w3.org/2000/svg" xmlns:xlink="http://www.w3.org/1999/xlink" viewBox="0 0 660 523"><defs><style>.cls-1{fill:url(#무제_그라디언트_16);}.cls-2,.cls-5{opacity:0.8;}.cls-3{fill:#d268cc;}.cls-4,.cls-5,.cls-6{fill:#fff;}.cls-4{opacity:0.7;}.cls-6{opacity:0.3;}.cls-7{fill:#fafafa;opacity:0.2;}</style><linearGradient id="무제_그라디언트_16" x1="43.61" y1="238.01" x2="468.95" y2="238.01" gradientUnits="userSpaceOnUse"><stop offset="0" stop-color="#8217f3"/><stop offset="1" stop-color="#4412e7"/></linearGradient></defs><path id="Background" class="cls-1" d="M452,155.09c-15-36.39-39.39-69-71.13-92.85C350.81,39.6,308,33.1,270.16,38.75,232.5,44.39,185.78,66.9,161.87,97.54c-22.63,29-35.75,54.31-60,82.23-21.72,25-37.24,43.57-50.74,74.88a91.84,91.84,0,0,0-6.93,26.82c-2.33,22.1,2.79,45.18,13.57,64.72,15.28,27.68,42.56,53.71,71.06,66.92,64.8,30,124.55,37.75,214.13,3.83,45.6-17.27,87.48-49,108-93.64C475.67,269.28,473.88,208.14,452,155.09ZM81.32,135.15c3.19,4.08,8.45,6.84,13.5,5.84,4.68-.93,8.22-4.71,11.36-8.34a492.42,492.42,0,0,0,32.68-42c8.82-12.7,21.29-27.06,9.7-41.85C130.6,25.83,99.82,50,87.78,67.51a74.36,74.36,0,0,0-11.93,53.21C76.68,125.86,78.13,131.06,81.32,135.15Z"/><g id="Stars"><g class="cls-2"><path class="cls-3" d="M581.39,289.06a15.23,15.23,0,1,1,15.06-15.23A15.16,15.16,0,0,1,581.39,289.06Zm0-29.53a14.31,14.31,0,1,0,14.15,14.3A14.24,14.24,0,0,0,581.39,259.53Z"/></g><path class="cls-3" d="M585.67,273.83a4.28,4.28,0,1,1-4.28-4.33A4.3,4.3,0,0,1,585.67,273.83Z"/><path class="cls-4" d="M585.67,273.83a4.28,4.28,0,1,1-4.28-4.33A4.3,4.3,0,0,1,585.67,273.83Z"/><g class="cls-2"><path class="cls-3" d="M468.23,47a10.73,10.73,0,1,1,10.61-10.73A10.68,10.68,0,0,1,468.23,47Zm0-20.54a9.81,9.81,0,1,0,9.7,9.81A9.76,9.76,0,0,0,468.23,26.43Z"/></g><path class="cls-3" d="M471.21,36.24a3,3,0,1,1-3-3A3,3,0,0,1,471.21,36.24Z"/><path class="cls-4" d="M471.21,36.24a3,3,0,1,1-3-3A3,3,0,0,1,471.21,36.24Z"/><g class="cls-2"><path class="cls-3" d="M87.9,469a11.37,11.37,0,1,1,11.24-11.36A11.31,11.31,0,0,1,87.9,469Zm0-21.81a10.45,10.45,0,1,0,10.33,10.45A10.39,10.39,0,0,0,87.9,447.23Z"/></g><path class="cls-3" d="M91.06,457.67a3.16,3.16,0,1,1-3.16-3.2A3.18,3.18,0,0,1,91.06,457.67Z"/><path class="cls-4" d="M91.06,457.67a3.16,3.16,0,1,1-3.16-3.2A3.18,3.18,0,0,1,91.06,457.67Z"/><path class="cls-3" d="M589.16,76.19A3.11,3.11,0,1,1,586.05,73,3.13,3.13,0,0,1,589.16,76.19Z"/><path class="cls-4" d="M589.16,76.19A3.11,3.11,0,1,1,586.05,73,3.13,3.13,0,0,1,589.16,76.19Z"/><path class="cls-3" d="M579.86,84.79A1.86,1.86,0,1,1,578,82.91,1.87,1.87,0,0,1,579.86,84.79Z"/><path class="cls-4" d="M579.86,84.79A1.86,1.86,0,1,1,578,82.91,1.87,1.87,0,0,1,579.86,84.79Z"/><path class="cls-3" d="M574.59,73a1.5,1.5,0,1,1-1.5-1.52A1.51,1.51,0,0,1,574.59,73Z"/><path class="cls-5" d="M574.59,73a1.5,1.5,0,1,1-1.5-1.52A1.51,1.51,0,0,1,574.59,73Z"/><path class="cls-3" d="M61.17,173.65a3.11,3.11,0,1,1-3.11-3.14A3.13,3.13,0,0,1,61.17,173.65Z"/><path class="cls-4" d="M61.17,173.65a3.11,3.11,0,1,1-3.11-3.14A3.13,3.13,0,0,1,61.17,173.65Z"/><path class="cls-3" d="M51.87,182.26A1.86,1.86,0,1,1,50,180.38,1.86,1.86,0,0,1,51.87,182.26Z"/><path class="cls-4" d="M51.87,182.26A1.86,1.86,0,1,1,50,180.38,1.86,1.86,0,0,1,51.87,182.26Z"/><path class="cls-3" d="M46.61,170.51a1.5,1.5,0,1,1-1.5-1.52A1.51,1.51,0,0,1,46.61,170.51Z"/><path class="cls-5" d="M46.61,170.51a1.5,1.5,0,1,1-1.5-1.52A1.51,1.51,0,0,1,46.61,170.51Z"/><path class="cls-3" d="M338.14,493.52a3.12,3.12,0,1,1-3.12-3.15A3.14,3.14,0,0,1,338.14,493.52Z"/><path class="cls-4" d="M338.14,493.52a3.12,3.12,0,1,1-3.12-3.15A3.14,3.14,0,0,1,338.14,493.52Z"/><path class="cls-3" d="M328.83,502.12a1.86,1.86,0,1,1-1.85-1.88A1.87,1.87,0,0,1,328.83,502.12Z"/><path class="cls-4" d="M328.83,502.12a1.86,1.86,0,1,1-1.85-1.88A1.87,1.87,0,0,1,328.83,502.12Z"/><path class="cls-3" d="M323.57,490.37a1.5,1.5,0,1,1-1.5-1.51A1.51,1.51,0,0,1,323.57,490.37Z"/><path class="cls-5" d="M323.57,490.37a1.5,1.5,0,1,1-1.5-1.51A1.51,1.51,0,0,1,323.57,490.37Z"/><path class="cls-3" d="M521.65,255.56a2.25,2.25,0,1,0,2.14-2.39A2.27,2.27,0,0,0,521.65,255.56Z"/><path class="cls-4" d="M521.65,255.56a2.25,2.25,0,1,0,2.14-2.39A2.27,2.27,0,0,0,521.65,255.56Z"/><path class="cls-3" d="M517,265.24a1.2,1.2,0,0,1,1.72.05,1.24,1.24,0,0,1-.05,1.74A1.21,1.21,0,0,1,517,267,1.23,1.23,0,0,1,517,265.24Z"/><path class="cls-5" d="M517,265.24a1.2,1.2,0,0,1,1.72.05,1.24,1.24,0,0,1-.05,1.74A1.21,1.21,0,0,1,517,267,1.23,1.23,0,0,1,517,265.24Z"/><path class="cls-3" d="M208.53,22.17a2.29,2.29,0,0,0,.93,3.08,2.25,2.25,0,0,0,3-.94,2.28,2.28,0,0,0-.93-3.08A2.25,2.25,0,0,0,208.53,22.17Z"/><path class="cls-4" d="M208.53,22.17a2.29,2.29,0,0,0,.93,3.08,2.25,2.25,0,0,0,3-.94,2.28,2.28,0,0,0-.93-3.08A2.25,2.25,0,0,0,208.53,22.17Z"/><path class="cls-3" d="M199.64,28.07a1.22,1.22,0,0,1,1.45.93,1.22,1.22,0,1,1-1.45-.93Z"/><path class="cls-5" d="M199.64,28.07a1.22,1.22,0,0,1,1.45.93,1.22,1.22,0,1,1-1.45-.93Z"/><path class="cls-3" d="M619.8,320.82a2.28,2.28,0,1,0-2.27-2.26A2.27,2.27,0,0,0,619.8,320.82Z"/><path class="cls-4" d="M619.8,320.82a2.28,2.28,0,1,0-2.27-2.26A2.27,2.27,0,0,0,619.8,320.82Z"/><path class="cls-3" d="M629.18,325.9a1.23,1.23,0,0,1,.12-1.73,1.2,1.2,0,0,1,1.71.12,1.24,1.24,0,0,1-.12,1.74A1.2,1.2,0,0,1,629.18,325.9Z"/><path class="cls-5" d="M629.18,325.9a1.23,1.23,0,0,1,.12-1.73,1.2,1.2,0,0,1,1.71.12,1.24,1.24,0,0,1-.12,1.74A1.2,1.2,0,0,1,629.18,325.9Z"/><path class="cls-3" d="M628.42,314.52a1.25,1.25,0,0,1,.12-1.74,1.22,1.22,0,0,1,1.72.12,1.25,1.25,0,0,1-.12,1.74A1.22,1.22,0,0,1,628.42,314.52Z"/><path class="cls-5" d="M628.42,314.52a1.25,1.25,0,0,1,.12-1.74,1.22,1.22,0,0,1,1.72.12,1.25,1.25,0,0,1-.12,1.74A1.22,1.22,0,0,1,628.42,314.52Z"/></g><path class="cls-6" d="M307.41,250.93c-12.29,8.65-27.35,14.23-46.12,18.26a8.83,8.83,0,0,0-6.83,9.19l1.78,20.73a6.85,6.85,0,0,0,8.19,6.37c18.51-3.76,34.91-10.63,45.56-17.67,3.53-2.34,5.87-8.07,5.57-12.33L314,253.93C313.71,249.67,310.87,248.49,307.41,250.93Z"/><path class="cls-7" d="M295.37,130.24c-1.81-5.74-4.77-10.59-10.11-13.46a26.4,26.4,0,0,0-15.83-2.71,7.87,7.87,0,0,0-4.35,1.64c-1.73,1.58-2,4.34-1.18,6.55a16.69,16.69,0,0,0,4,5.69c6.59,6.84,14,13.29,17.84,22,1.76,4,2.67,8.38,4,12.58.71,2.25,2.61,4.44,5.22,3.35,2.92-1.23,3.07-5,3.33-7.7a71.84,71.84,0,0,0,.33-10A69.09,69.09,0,0,0,295.37,130.24Zm.31,40.66a2.64,2.64,0,0,0-1.07-2.06,2.83,2.83,0,0,0-2-.35,3.93,3.93,0,0,0-3.35,4.27,2.31,2.31,0,0,0,.61,1.33,3.22,3.22,0,0,0,3.28.81,4.53,4.53,0,0,0,2.48-3.29A2.8,2.8,0,0,0,295.68,170.9Z"/></svg>