<svg id="레이어_1" data-name="레이어 1" xmlns="http://www.w3.org/2000/svg" xmlns:xlink="http://www.w3.org/1999/xlink" viewBox="0 0 450 707"><defs><style>.cls-1{fill:#f0f0f0;}.cls-2{fill:#e1e1e1;}.cls-3{fill:#375a64;}.cls-4{fill:#2b454e;}.cls-5{fill:url(#무제_그라디언트_71);}.cls-6{fill:#fd89fe;}.cls-7{fill:#fff;opacity:0.5;}.cls-8{fill:url(#무제_그라디언트_30);}.cls-12,.cls-20,.cls-9{opacity:0.2;}.cls-10{fill:url(#무제_그라디언트_32);}.cls-11{fill:#d268cc;}.cls-13{fill:#1a2e35;}.cls-14{fill:#f5f5f5;}.cls-15{fill:url(#무제_그라디언트_71-2);}.cls-16,.cls-19,.cls-20{fill:#fafafa;}.cls-17{fill:url(#무제_그라디언트_71-3);}.cls-18{fill:#5352ee;}.cls-19{opacity:0.3;}</style><linearGradient id="무제_그라디언트_71" x1="334.82" y1="205.9" x2="460.12" y2="302.87" gradientUnits="userSpaceOnUse"><stop offset="0" stop-color="#fefffe"/><stop offset="0.04" stop-color="#fefbfe"/><stop offset="0.07" stop-color="#feeefe"/><stop offset="0.11" stop-color="#fed9fe"/><stop offset="0.15" stop-color="#febbfe"/><stop offset="0.19" stop-color="#fe96fe"/><stop offset="0.2" stop-color="#fe89fe"/><stop offset="0.29" stop-color="#f988fd"/><stop offset="0.39" stop-color="#eb84fc"/><stop offset="0.5" stop-color="#d47ff9"/><stop offset="0.61" stop-color="#b377f6"/><stop offset="0.72" stop-color="#8a6cf1"/><stop offset="0.84" stop-color="#5760ec"/><stop offset="0.87" stop-color="#485cea"/><stop offset="1" stop-color="#0047ea"/></linearGradient><linearGradient id="무제_그라디언트_30" x1="190.94" y1="331.25" x2="284.26" y2="331.25" gradientUnits="userSpaceOnUse"><stop offset="0.27" stop-color="#485cea"/><stop offset="1" stop-color="#0047ea"/></linearGradient><linearGradient id="무제_그라디언트_32" x1="205.91" y1="344.41" x2="283.27" y2="324.79" gradientUnits="userSpaceOnUse"><stop offset="0" stop-color="#fefffe"/><stop offset="0.03" stop-color="#fefbfe"/><stop offset="0.06" stop-color="#feeefe"/><stop offset="0.08" stop-color="#fed9fe"/><stop offset="0.11" stop-color="#febbfe"/><stop offset="0.14" stop-color="#fe96fe"/><stop offset="0.15" stop-color="#fe89fe"/><stop offset="0.25" stop-color="#f988fd"/><stop offset="0.35" stop-color="#eb84fc"/><stop offset="0.47" stop-color="#d47ff9"/><stop offset="0.59" stop-color="#b377f6"/><stop offset="0.71" stop-color="#8a6cf1"/><stop offset="0.84" stop-color="#5760ec"/><stop offset="0.87" stop-color="#485cea"/><stop offset="1" stop-color="#0047ea"/></linearGradient><linearGradient id="무제_그라디언트_71-2" x1="29.37" y1="382.84" x2="86.73" y2="382.84" xlink:href="#무제_그라디언트_71"/><linearGradient id="무제_그라디언트_71-3" x1="108.1" y1="161.78" x2="266" y2="161.78" xlink:href="#무제_그라디언트_71"/></defs><path class="cls-1" d="M331.15,415.33c-13.49-30.8-31.44-60.22-31.44-60.22L128.08,385.42c-.59,24.4,3.41,45.59,20.26,68.06,4.77,6.37,10.43,13,16.2,19.41A67.64,67.64,0,0,0,160,502c1.25,21.57,9.79,29.82,9.79,29.82s2.47-.19,10.21-.42a68.83,68.83,0,0,0-4,7.55c-7.84,17.36-17.47,40.23-17.47,40.23s4,17,17.86,26.35,25.75,6.41,25.75,6.41,47.26-45.55,60.86-58.09c9.11-8.39,20.09-20.83,22.11-25.53C309,525.42,326.89,512.92,334,503,346.6,485.18,346.26,449.81,331.15,415.33Z"/><path class="cls-2" d="M173,588.09l-5.3-1.78c3.51-10.65,17.18-45.77,30.25-64.73,11.69-16.94,13.19-19.12-10.63-45.82-24.93-27.92-41.15-58.17-41.33-77.05l5.59,0c.16,17.58,15.82,46.36,39.88,73.32s25.18,32.38,11.07,52.83C190,543,176.29,578.07,173,588.09Z"/><path class="cls-2" d="M285.06,528.28c10.58-26.26,2.9-50.16-5-66.65s-19.58-32.26-19.58-32.26,25.17-14.14,31.26-33.5C294,414.36,276,433.08,276,433.08S312.43,491.56,285.06,528.28Z"/><path class="cls-3" d="M190.42,515.2A100.22,100.22,0,0,0,180,531.29c-.45,0-.88.07-1.31.11h-.21c-6.9.58-12.22,1.32-14.59,2.87-4.81,3.13-11.38,22.4-14.59,35.36s-18.15,16.94-28,13.39S99,554.37,105.35,536.19,120.27,515,120.8,503.63s1.44-19,7.58-25.43c13.53-5.46,15-.64,27.74-5.34,1.92-.71,4-1.59,6.12-2.58l21.12,23.94A62.72,62.72,0,0,0,190.42,515.2Z"/><path class="cls-4" d="M164.54,472.89l31.65,35.86s-8.73,8.15-16.22,22.61l-4,.13s2.7-16.68,11.3-22.86Z"/><path class="cls-3" d="M225.15,589.73l-4,3.85c-24.24-1-49.52-28.18-52.2-38.83l2.18-5c-5.48-2.79-13.7,22.53-22.06,35.6-7.38,11.55-11.41,8.6-18.93,21.19-1.06,8.87,2.74,15.5,9.14,24.92s1.32,17,7.13,35.38,30.64,30.86,40.65,27.63,19.53-15.51,14.36-27.8S190,635,191.93,629.58s15.33-16.82,28.27-29.33C229.11,591.64,225.15,589.73,225.15,589.73Z"/><path class="cls-2" d="M244.9,218.36c27.64-7,43.45,11.29,65.27,11.74,23.85.49,33.18-7.71,42.23-26.35,16.24-9.38,35.83.88,39.29,10.3-2.91,44.11-26.21,64-53.36,74.55-25.7,10-58.14,6.62-76.37.38C236.53,261.17,240,230.35,244.9,218.36Z"/><path class="cls-3" d="M348.59,179.93c1.45,1.63,2.44,3.64,3.84,5.32a13.2,13.2,0,0,0,3.89,3.16,17.9,17.9,0,0,1,2.83,1.6c2.06,1.67,1.06,3.34,0,5.24-1.89,3.4-4,6.68-6,10,.63,3.28,6.66,7.74,11.33,9.64,9.51,3.86,22.18,4.6,26.06.1,1.95-7.47,3.08-17,3.72-24.66a28.29,28.29,0,0,0-.43-9.23,25.4,25.4,0,0,0-3-6.77c-4.45-7.4-10.92-13.8-18.94-16.84s-17.66-2.3-24.42,3c-1.53,1.21-3.08,2.71-5,2.81-2.37.13-4.56-1.35-7.06-1.22a11.72,11.72,0,0,0-7.28,3,5.3,5.3,0,0,0-1.43,1.89c-1.12,2.76,1.46,3.94,3.6,4.9,3.08,1.38,6.42,2.06,9.64,3.08S346.33,177.39,348.59,179.93Z"/><path class="cls-5" d="M352.4,203.75c-2.65,5.11-11.08,17.34-21.5,21.63C329.17,237,352.1,264,377.8,261.21c6.8-9.43,15.27-27.74,13.89-47.16C378.47,220.89,356,214.52,352.4,203.75Z"/><path class="cls-2" d="M425.73,309.09c1.93,4.15-7.18,8.5-9.11,4.36L289,40.32c-1.74-3.73,7.37-8.08,9.11-4.36Z"/><path class="cls-6" d="M380.92,31.3c-28.26,20.47-54.42-15.63-83.55,9.64l26.57,56.11c15.33-22.69,49.73-6.61,69.64-32.4,14.85-19.23,11.17-36.72,21.23-45.92a1.78,1.78,0,0,0-1.19-3.06C400.56,15.56,392.13,23.17,380.92,31.3Z"/><path class="cls-7" d="M338.26,43l6.11,6.77,9-1.26a2.17,2.17,0,0,1,2.16,3.22l-4.48,8L355,68A2.15,2.15,0,0,1,352.62,71l-8.88-1.84-6.53,6.35a2.13,2.13,0,0,1-3.6-1.32l-1-9.11-8-4.32a2.18,2.18,0,0,1,.12-3.88L333,53.12l1.6-9A2.13,2.13,0,0,1,338.26,43Z"/><path class="cls-3" d="M374.45,148.75a7.75,7.75,0,0,1-3-1.59c-1.62-1.45-3-3.13-4.67-4.56a18.79,18.79,0,0,0-5.69-3.76A17.52,17.52,0,0,0,356,138c-5.1-.27-10.33.07-14.11,4a30.83,30.83,0,0,0-3.25,4,41.75,41.75,0,0,0-2.36,4,13.05,13.05,0,0,0-1.61,4,1.58,1.58,0,0,0,0,1,1.4,1.4,0,0,0,.65.62,6.36,6.36,0,0,0,6-.16c3-1.52,4.7-4.79,8-5.9a8.18,8.18,0,0,1,4.47-.17c1.1.27,3,1.15,3.36,2.45-2.21.65-4.49.85-6.66,1.73a11,11,0,0,0-5.06,3.66,20.26,20.26,0,0,0-2.4,6.26,12,12,0,0,0-.16,6.69,4.45,4.45,0,0,0,1.39,2.1,2.51,2.51,0,0,0,2.38.43A3.55,3.55,0,0,0,349.2,176a7.09,7.09,0,0,0,4.51-.36,16.06,16.06,0,0,0,3.39-1.7,3.75,3.75,0,0,0-.18,3c.79,2.11,3.41,2.71,5.38,3.06a33.26,33.26,0,0,0,7.18.51c-.23,5.51,3.5,10.6,8.23,13.35s10.31,3.53,15.75,3.86c1.38-9.88,1.78-20.17-1.32-29.64a27.45,27.45,0,0,0-2.45-5.34c-.72-1.24-1.83-2.1-2.51-3.36a17.53,17.53,0,0,0-1-2c-1.09-1.48-3.15-1.95-4.25-3.41-.49-.66-.75-1.47-1.21-2.15a7.17,7.17,0,0,0-4.22-2.5C375.78,149.12,375.1,149,374.45,148.75Z"/><path class="cls-4" d="M341.89,142a37,37,0,0,0-6.61,10.81c-.2.74-.51,1.76-.11,2.08a5.22,5.22,0,0,0,4.47.6c3.38-.91,5.06-4.25,8.07-6a8.46,8.46,0,0,1,5.35-1c1.93.33,3.93,1,4.77,3.07a.71.71,0,0,1-.5.92c-3.88,1-7.74,1.41-10.55,4.24-2.32,2.78-3.22,7-3.5,10.57-.1,1.85.84,5.14,3.05,4.56a.83.83,0,0,1,1.08.48c.2,5,6.54,3,9.26,1a.78.78,0,0,1,1.12,1c-2.2,5.63,8.24,5.43,11.68,5.55a.64.64,0,0,1,.66.67c-.18,11.94,13.24,16.73,23.33,17.19-10.62.22-24.56-4.6-24.63-17.24l.67.68c-4.75.17-16,0-13.09-7.57l1.12,1a13.81,13.81,0,0,1-6.42,2.44c-2.54.27-5.52-1.62-5.33-4.53l1.14.85a3.67,3.67,0,0,1-4.37-1.88c-1.48-2.63-1-5.68-.34-8.39s1.45-5.41,3.44-7.55c3-3,7.54-3.65,11.26-4.54l-.5.91c-1.45-2.55-5.7-2.73-8.09-1.36-2.9,1.62-4.92,5.06-8.44,5.84a5.82,5.82,0,0,1-5.28-1c-1.05-1.53.54-3.77,1.2-5.17a35.31,35.31,0,0,1,6.09-8.25Z"/><path class="cls-4" d="M370.47,150a28.59,28.59,0,0,0-7-.24,33.77,33.77,0,0,0-3.61.4c-.66.1-1.31.21-2,.34a4.12,4.12,0,0,0-1.46.44c-.46.29-.22.82.16,1.15-.06,0,0,0,.06.07l0,0,0,0a.79.79,0,0,0,.29.11h0l.05,0,0,0a2,2,0,0,0,.77,0c.56-.07,1.12-.19,1.67-.29l5-.79c2-.32,4.1-.45,6.09-1C370.66,150.28,370.57,150,370.47,150Z"/><path class="cls-4" d="M374.6,161.15a8.49,8.49,0,0,0-3.17-1.25,28.14,28.14,0,0,0-4-.83,21.25,21.25,0,0,0-7.77.72,22.77,22.77,0,0,0-7.11,3.23c-2.79,1.95-4,4.76-5.52,7.71-.13.25.29.89.54.59,1.9-2.35,3.59-4.89,6.14-6.57a23.8,23.8,0,0,1,7.14-3.21,29.85,29.85,0,0,1,7.11-.83,19.55,19.55,0,0,1,3.42.15,14.77,14.77,0,0,0,3.19.58C374.72,161.43,374.66,161.19,374.6,161.15Z"/><path class="cls-4" d="M372.86,168.34a5,5,0,0,0-2.15-.73,9,9,0,0,0-2-.05,16.76,16.76,0,0,0-4.32.77,10.83,10.83,0,0,0-5.93,4,.54.54,0,0,0-.13.46.13.13,0,0,0,.08.08s.09,0,.13,0l2-1.15c.57-.32,1.14-.55,1.73-.83a18.53,18.53,0,0,1,3.65-1.32,19.63,19.63,0,0,1,3.73-.54c.69,0,1.35-.06,2-.15.42-.06.87.05,1.22-.22C373,168.59,372.93,168.4,372.86,168.34Z"/><path class="cls-3" d="M128.28,378.38c-2.44,6.35,1.25,15.19,14.64,21.43s34.7,11.19,70.89,6c31.06-4.46,57.57-15.47,72.78-29.21,8.19-7.4,17.17-20.25,11.16-26.86Z"/><path class="cls-1" d="M297.75,349.73c-3.88,13.36-26,36.69-79.54,45.7-52.57,8.85-93.29-6.11-92.89-23.85.24-27.18-15.86-46.1-21.31-75.79-6.1-33.23,5-51.8,5-51.8,51.5-31.93,132.54-22.4,149.22-24.61,20.2,13.26,31.39,29.74,30.51,75C288.35,315,301.17,321.48,297.75,349.73Z"/><path class="cls-8" d="M282.11,301.87c-.18-2.59-1.08-4.3-2.4-5.16l0,0-9.65-6.18,0,.05c-1.66-1.07-4-.8-6.63,1-16.81,11.84-37.41,19.47-63.1,25A12.1,12.1,0,0,0,191,329.16l2.45,28.36a9.75,9.75,0,0,0,4.34,7.44h0l9.75,6.24a9.17,9.17,0,0,0,6.75,1.19c25.33-5.14,47.77-14.55,62.33-24.18,4.83-3.2,8-11,7.62-16.86Z"/><path class="cls-9" d="M191,329.16l2.45,28.36a9.75,9.75,0,0,0,4.34,7.44h0l9.75,6.24c.27.16.56.28.83.42l-2.09-39.94-13.75-9.2A11.58,11.58,0,0,0,191,329.16Z"/><path class="cls-10" d="M273.07,297.76c-16.81,11.83-37.41,19.46-63.1,25a12.1,12.1,0,0,0-9.35,12.58l2.45,28.36a9.38,9.38,0,0,0,11.2,8.72c25.33-5.14,47.77-14.55,62.33-24.18,4.83-3.2,8-11,7.62-16.86l-2.11-29.49C281.7,296,277.81,294.42,273.07,297.76Z"/><path class="cls-11" d="M215.53,365.86c-.06-.89-.1-1.78-.19-2.68-.08-.73-.18-1.47-.24-2.2-.25-3.38-.54-6.75-.85-10.12s-.65-6.56-1-9.84c-.2-1.81-.43-3.62-.67-5.43a26,26,0,0,0-1.06-5.69c-.32-.86-2.19-1-2.27.11-.24,3.29.5,6.81.85,10.07s.7,6.38,1,9.57.57,6.22.82,9.33c.13,1.55.24,3.11.36,4.66.08,1.1-.18,3,.75,3.74a1.59,1.59,0,0,0,2,.1,1.09,1.09,0,0,0,.49-1.1,1.15,1.15,0,0,0,0-.19C215.54,366.08,215.54,366,215.53,365.86Zm9.13-2.58c-.06-.89-.09-1.78-.19-2.67s-.17-1.47-.23-2.21c-.26-3.37-.54-6.75-.86-10.12s-.64-6.56-1-9.84c-.2-1.81-.44-3.62-.67-5.42a26.46,26.46,0,0,0-1.06-5.69c-.33-.87-2.2-1-2.28.1-.23,3.29.51,6.81.86,10.08s.69,6.37,1,9.57.58,6.21.83,9.32c.12,1.56.24,3.11.35,4.67.08,1.1-.17,2.95.76,3.73a1.6,1.6,0,0,0,2,.11,1.13,1.13,0,0,0,.49-1.11c0-.06,0-.12,0-.19Zm9.58-2.47c0-.11,0-.22,0-.33-.06-.89-.1-1.78-.19-2.67s-.18-1.47-.23-2.21q-.39-5.07-.86-10.12c-.31-3.28-.64-6.56-1-9.84-.2-1.81-.43-3.62-.67-5.43a25.4,25.4,0,0,0-1.06-5.69c-.32-.86-2.19-1-2.27.11-.23,3.29.5,6.81.85,10.07s.7,6.38,1,9.57.57,6.22.82,9.33c.13,1.55.25,3.11.36,4.67.08,1.1-.17,3,.75,3.73a1.59,1.59,0,0,0,2,.1,1.12,1.12,0,0,0,.5-1.1C234.25,360.94,234.25,360.87,234.24,360.81Z"/><g class="cls-12"><path d="M232.44,359.24c-.06-.9-.1-1.79-.19-2.68-.07-.73-.18-1.47-.23-2.21-.26-3.37-.54-6.74-.86-10.11s-.64-6.57-1-9.84c-.2-1.81-.43-3.62-.66-5.43a32.52,32.52,0,0,0-.88-5.08.82.82,0,0,0-.68.74c-.23,3.29.5,6.81.85,10.07s.7,6.38,1,9.57.57,6.22.82,9.33c.13,1.55.25,3.11.36,4.67a12.63,12.63,0,0,0,.24,2.88,1.56,1.56,0,0,0,.77-.29,1.13,1.13,0,0,0,.5-1.11c0-.06,0-.12,0-.18Z"/><path d="M213.75,364.61c-.06-.89-.1-1.78-.19-2.67-.07-.73-.18-1.47-.23-2.21q-.39-5.06-.86-10.11c-.31-3.29-.64-6.57-1-9.85-.2-1.81-.43-3.61-.67-5.42a32.5,32.5,0,0,0-.87-5.08.81.81,0,0,0-.68.74c-.24,3.29.5,6.81.85,10.07s.7,6.38,1,9.57.57,6.22.82,9.33c.13,1.55.24,3.11.36,4.66a12.69,12.69,0,0,0,.23,2.89,1.56,1.56,0,0,0,.78-.29,1.13,1.13,0,0,0,.5-1.11c0-.06,0-.12,0-.18S213.76,364.72,213.75,364.61Z"/><path d="M222.89,362c-.07-.89-.1-1.78-.19-2.68-.08-.73-.18-1.47-.24-2.2-.25-3.38-.54-6.75-.85-10.12s-.65-6.56-1-9.84c-.2-1.81-.43-3.62-.67-5.43a31.39,31.39,0,0,0-.88-5.08.82.82,0,0,0-.68.74c-.23,3.29.51,6.81.86,10.08s.69,6.37,1,9.57.58,6.21.83,9.32c.12,1.56.24,3.11.35,4.67a12.59,12.59,0,0,0,.24,2.88,1.5,1.5,0,0,0,.78-.29,1.11,1.11,0,0,0,.49-1.1,1.15,1.15,0,0,0,0-.19C222.9,362.26,222.89,362.15,222.89,362Z"/></g><path class="cls-13" d="M253.56,319.55a3.92,3.92,0,0,1,1.81,3.52,12.41,12.41,0,0,1-5,10c-1.48,1-2.85,1.13-3.88.6l-3.63-1.87a4,4,0,0,1-1.81-3.52,12.42,12.42,0,0,1,5-10,3.85,3.85,0,0,1,3.88-.6Z"/><path class="cls-3" d="M250.36,333c-1.48,1-2.85,1.13-3.88.6a3.94,3.94,0,0,1-1.81-3.53,12.39,12.39,0,0,1,5-10c1.48-1,2.85-1.13,3.88-.6a3.92,3.92,0,0,1,1.81,3.52A12.41,12.41,0,0,1,250.36,333Z"/><path class="cls-2" d="M275.57,309.88a3.94,3.94,0,0,1,1.81,3.53,12.39,12.39,0,0,1-5,10,3.82,3.82,0,0,1-3.88.6l-3.63-1.86c-1-.53-1.71-1.75-1.8-3.53a12.36,12.36,0,0,1,5-10A3.85,3.85,0,0,1,272,308Z"/><path class="cls-14" d="M272.37,323.37a3.82,3.82,0,0,1-3.88.6c-1-.52-1.71-1.74-1.81-3.52a12.45,12.45,0,0,1,5-10c1.48-1,2.86-1.13,3.88-.6a3.94,3.94,0,0,1,1.81,3.53A12.39,12.39,0,0,1,272.37,323.37Z"/><path class="cls-13" d="M254.73,341.89a3.94,3.94,0,0,1,1.81,3.53,12.39,12.39,0,0,1-5,10,3.85,3.85,0,0,1-3.88.61L244,354.12c-1-.53-1.71-1.75-1.8-3.53a12.36,12.36,0,0,1,5-10,3.85,3.85,0,0,1,3.88-.6Z"/><path class="cls-3" d="M251.53,355.38a3.85,3.85,0,0,1-3.88.61c-1-.53-1.71-1.75-1.81-3.53a12.45,12.45,0,0,1,5-10c1.48-1,2.86-1.13,3.88-.6a3.94,3.94,0,0,1,1.81,3.53A12.39,12.39,0,0,1,251.53,355.38Z"/><path class="cls-13" d="M276.75,332.23a4,4,0,0,1,1.8,3.53,12.39,12.39,0,0,1-5,10c-1.48,1-2.85,1.13-3.88.6L266,344.46c-1-.53-1.71-1.75-1.8-3.53a12.39,12.39,0,0,1,5-10c1.48-1,2.85-1.13,3.88-.6C273.74,330.69,276.12,331.91,276.75,332.23Z"/><path class="cls-3" d="M273.54,345.72c-1.48,1-2.85,1.13-3.88.6s-1.71-1.75-1.81-3.53a12.42,12.42,0,0,1,5-10,3.87,3.87,0,0,1,3.89-.6,4,4,0,0,1,1.8,3.53A12.39,12.39,0,0,1,273.54,345.72Z"/><path class="cls-3" d="M191.9,339.8c-13.57,7-57.36,14.89-74.26-3-3.23,4.92-1.49,11.28,3.64,16.56s16.9,10.76,33.67,10.05c27.9-1.17,41.51-7.76,41.51-7.76s4.54-2.68,2.95-10.14S191.9,339.8,191.9,339.8Z"/><path class="cls-2" d="M125.84,323.37c-8.58,3.53-22.93,10.54-32.36,23.47-10.87,14.91-14,34.24-6.75,47.88C71.9,412,55.23,411.63,45.6,410.35c-18.42-29.29-19.6-66.63-8.9-94S64.26,262.48,109,244C131.63,243.3,146.47,300.64,125.84,323.37Z"/><path class="cls-3" d="M40.22,395.39c-.21.36-.41.74-.6,1.12a2.41,2.41,0,0,0-.31,1,2.35,2.35,0,0,0,.53,1.26c2.12,3.08,4.61,5.88,6.72,9A22.61,22.61,0,0,1,50.79,418c.5,5.07,0,10.06.93,15.16a140,140,0,0,0,4.22,16A23.15,23.15,0,0,0,62.35,460a33,33,0,0,0,11,6.44,21,21,0,0,0,6.83,1.09c2,.08,4.92.81,6.82.12a2.37,2.37,0,0,0,1.19-.84,2.52,2.52,0,0,0,0-2.33,10.49,10.49,0,0,0-3.87-4.68c-3.18-2.23-7.38-2.94-9.78-6.24a13.67,13.67,0,0,1-1.84-4.64c-.09-.34.13-.83.5-.78.87.84,1.53,1.9,2.42,2.69a14,14,0,0,0,3.73,2,29.87,29.87,0,0,0,8,2.16,30.29,30.29,0,0,0,16.43-2.46,11,11,0,0,0,3.73-2.52c1.27-1.42,2-4.1.67-5.68a4.73,4.73,0,0,0-2.55-1.37,3.17,3.17,0,0,0,1.3-2.89,4.37,4.37,0,0,0-1.57-2.79,6.7,6.7,0,0,0-2.88-1.31,4,4,0,0,0-.62-3.34,6.42,6.42,0,0,0-2.73-2.17,11.47,11.47,0,0,1-2.62-1.31c-1.46-1.2-1.78-3.5-2-5.27-.22-2.19,0-4.4,0-6.6-.06-6.41-2.69-12.51-6.42-17.51-3.29-4.42-9.55-13.19-12.82-17.61-1.23-1.67-3.66-2-5.55-2.08-5.74-.27-11.77,1.63-16.91,4.06A26.63,26.63,0,0,0,40.22,395.39Z"/><path class="cls-4" d="M98,437.38c-.93-.07-1.86-.22-2.79-.32a24,24,0,0,1-2.8-.43A10.49,10.49,0,0,1,89,435.36a.6.6,0,0,1-.27-.25c-.11-.23,0-.49.19-.71.29-.44,1.8-3,1.13-3.33l-2.82,3.42A8.65,8.65,0,0,1,86,435.86c-.54.43-1,.91-1.6,1.34-.12.09-.24.16-.35.25a6.19,6.19,0,0,0-.41-2.07,11.88,11.88,0,0,0-3.32-4.73,15,15,0,0,0-4.59-2.46A14.36,14.36,0,0,1,76.94,426c.48-.91,1-1.83,1.35-2.77a15.57,15.57,0,0,0,1.41-5.93c0-4-2.17-6.67-5.26-8.89-.39-.28-.56.13-.41.47,1.08,2.57,2.77,5.07,2.72,8s-1.33,5.59-2.66,8.1c-.49.91-1.52,2.23-1.63,3.27-.14,1.28.84,1.71,1.87,2A9.74,9.74,0,0,1,80,434.56c.55.95,1.71,3,.5,3.88-1,.71-2.85.54-4,.64a24.08,24.08,0,0,1-8.17-.3c-2.8-.75-4.69-2.6-6.53-4.66C60.84,433.07,59.91,432,59,431a20.39,20.39,0,0,0-3.09-3.14c-.12-.09-.13.14-.11.2.7,2.34,2.6,4.77,4.07,6.7a17.58,17.58,0,0,0,4.86,4.71c3.48,2.08,7.72,2.31,11.74,2.09l1.51-.08a32.37,32.37,0,0,0-3.3,2c-.12.09,0,.38.12.37a15.34,15.34,0,0,0,6.75-2.7c5.37,3.11,12.25,4.81,18.4,3,.2-.05.09-.49-.1-.49a41,41,0,0,1-9.9-.83A27.8,27.8,0,0,1,83,440.09c.3-.21.61-.42.89-.64a31.18,31.18,0,0,0,3.51-3.19,3.38,3.38,0,0,0,.41.24l.63.31c.42.2.85.37,1.29.54a18,18,0,0,0,2.81.8,16.89,16.89,0,0,0,3,.31,9.43,9.43,0,0,0,2.62-.46C98.46,437.92,98.25,437.39,98,437.38Z"/><path class="cls-15" d="M85.07,365.25c-1,5.43-3,21,1.66,29.47-19.13-8.66-38.3,4.13-41.13,15.63-8.55-8.91-14.38-23.63-16.23-46.53C49.77,350.68,73.39,354.09,85.07,365.25Z"/><path class="cls-3" d="M264.76,207.79c-26.35-43.31-132.58-32.26-147.25,16.63a33.64,33.64,0,0,0-1.38,10.36A67.35,67.35,0,0,0,117,244a34.25,34.25,0,0,0,3.4,10.57c24,45.91,133.53,35.34,148.5-14.34a34.58,34.58,0,0,0,1.37-11,73.19,73.19,0,0,0-.66-7.65A36.51,36.51,0,0,0,264.76,207.79Z"/><path class="cls-4" d="M157.89,269.62a18,18,0,0,1-.45,6.84,9.54,9.54,0,0,0-.33,3.88l.94.24a8.43,8.43,0,0,1,.25-3.91,19.09,19.09,0,0,0,.48-7.15c-.4-3.8.1-7,3.83-10.22l-.58-.68C158,262.09,157.46,265.53,157.89,269.62Z"/><path class="cls-4" d="M196.69,269.34c-18.88,1.83-38.16-.55-53.33-7.56h0c-14.79-6.83-23.54-17-24.64-28.61s5.59-23.28,18.83-32.82c27.17-19.57,74-24.09,104.3-10.07,14.79,6.83,23.54,17,24.63,28.61s-5.59,23.28-18.83,32.82C234.07,261.49,215.58,267.51,196.69,269.34ZM188.6,183.6c-18.73,1.81-37.06,7.78-50.53,17.49-13,9.34-19.52,20.7-18.46,32s9.63,21.19,24.12,27.88c30.08,13.9,76.47,9.42,103.41-10,13-9.34,19.52-20.71,18.46-32s-9.64-21.19-24.12-27.89C226.44,184.15,207.32,181.79,188.6,183.6Z"/><path class="cls-1" d="M262,205.26l.94,10c1,10.56-4.91,21.8-18,31.2-26.09,18.8-70.87,23.13-100,9.66-14.57-6.73-22.47-16.63-23.47-27.2l-.94-10c1,10.56,8.9,20.47,23.47,27.2,29.14,13.46,73.92,9.13,100-9.66C257.1,227.07,263,215.84,262,205.26Z"/><path class="cls-16" d="M217.58,259.33a105.28,105.28,0,0,0,10.57-3.67l-1-10a104.38,104.38,0,0,1-10.57,3.66Z"/><path class="cls-2" d="M260,217.7c-2.69,6.56-8,13-16,18.77-.62.45-1.26.88-1.91,1.31l1,10c.64-.43,1.28-.88,1.9-1.32,8-5.76,13.3-12.21,16-18.77Z"/><path class="cls-2" d="M196.46,253.25C178,255.24,159,253,144,246.13c-14.57-6.73-22.48-16.64-23.47-27.2l.94,10c1,10.57,8.9,20.47,23.47,27.2,14.91,6.89,33.92,9.12,52.42,7.14Z"/><path class="cls-14" d="M146.33,256.73a92.61,92.61,0,0,0,31.65,7l-.95-10a92.79,92.79,0,0,1-31.64-7.05Z"/><path class="cls-4" d="M263.05,201.42c-1-10.78-9.08-20.88-23.94-27.74-29.71-13.73-75.37-9.32-102,9.85-13.31,9.58-19.33,21-18.31,31.82l.36,3.88c1,10.78,9.08,20.88,23.94,27.74,29.71,13.73,75.37,9.31,102-9.85,13.3-9.59,19.32-21.05,18.3-31.82Z"/><path class="cls-3" d="M142.76,243.09c29.71,13.72,75.37,9.31,102-9.85,13.3-9.59,19.32-21.05,18.31-31.82s-9.08-20.88-23.94-27.74c-29.71-13.73-75.37-9.32-102,9.85-13.31,9.58-19.33,21-18.31,31.82S127.9,236.23,142.76,243.09Z"/><path class="cls-4" d="M170.2,255.67a62.8,62.8,0,0,1-16.93-3.73,1.45,1.45,0,0,0-1.38.06l-1.51,1.1a1.38,1.38,0,0,0-.47,1.33v.08a4,4,0,0,0,2.28,3.09,62.34,62.34,0,0,0,16.92,3.72,1.83,1.83,0,0,0,1.24-.32l1.53-1.1a1.89,1.89,0,0,0,.75-1.76v-.07A2.75,2.75,0,0,0,170.2,255.67Z"/><path class="cls-3" d="M152.2,257.6a62.34,62.34,0,0,0,16.92,3.72,1.82,1.82,0,0,0,2-2.08v-.08a2.74,2.74,0,0,0-2.43-2.4A62.72,62.72,0,0,1,151.77,253c-1.15-.44-2,.16-1.86,1.4v.08A4,4,0,0,0,152.2,257.6Z"/><path class="cls-13" d="M256.28,190.91h0c.94,9.93-4.62,20.47-16.85,29.29-24.5,17.64-66.54,21.7-93.89,9.07-13.68-6.33-21.1-15.62-22-25.54s4.61-20.47,16.86-29.29c24.5-17.66,66.53-21.72,93.89-9.08C247.92,171.69,255.34,181,256.28,190.91Z"/><path class="cls-3" d="M256.28,190.91h0c.94,9.93-4.62,20.47-16.85,29.29-24.5,17.64-66.54,21.7-93.89,9.07-13.68-6.33-21.1-15.62-22-25.54s4.61-20.47,16.86-29.29c24.5-17.66,66.53-21.72,93.89-9.08C247.92,171.69,255.34,181,256.28,190.91Z"/><ellipse class="cls-17" cx="187.05" cy="161.78" rx="78.94" ry="79.86"/><path class="cls-1" d="M259.23,194.32c-.87,1.81-5.69,10.24-22.59,18-.68.31-1.37.61-2.06.9-10.27,4.29-24.1,6.43-37.71,6a62.23,62.23,0,0,1-48.09-25.81h0a20.93,20.93,0,0,0,.5-7.4,39.06,39.06,0,0,0-7-18c3.29-7.26,7-31,47.81-56,19.74-12.13,46.81-9.65,54.27-5.25a78.82,78.82,0,0,0-68.85-24.47c-41.12,5.77-71.19,43.35-68.25,85.24a80.64,80.64,0,0,0,16.35,43.47,3.7,3.7,0,0,1,.74,1.86h0c.93,9.92,8.36,19.21,22,25.54,27.36,12.63,69.4,8.57,93.89-9.07,12.25-8.84,17.79-19.38,16.85-29.3h0a3.72,3.72,0,0,1,.37-2C258.11,196.79,258.68,195.57,259.23,194.32Z"/><path class="cls-2" d="M254.77,200.26c-2.34,6.56-7.47,13-15.45,18.79-21.38,15.4-56.12,20.46-82.79,13.09a71.48,71.48,0,0,1-11.1-4,49,49,0,0,1-13-8.54c-3.75-2.67-7.39-7.39-9.06-9.06,0,0,1.08,4,1.29,4.67l.32,1.07c.06.17.11.34.15.5a26.86,26.86,0,0,0,5.51,10.14c3.68,4.36,9,8.26,15.79,11.43,27.36,12.63,69.4,8.57,93.9-9.08,12.24-8.83,17.78-19.37,16.84-29.3a3.56,3.56,0,0,1,.37-2c.58-1.15,1.12-2.32,1.64-3.49A24.93,24.93,0,0,1,254.77,200.26Z"/><path class="cls-18" d="M244.37,106.7c9,11.33-2.22,33.11-14.44,41.64,6.55,3,10.78,14.1,8.3,21.53,12.92,4,23.52,14.78,21,24.45h0a81.15,81.15,0,0,0-14.86-87.62Z"/><path class="cls-2" d="M138.63,201.84a8.86,8.86,0,0,1-4.6-.93c-7.23-3.33-13.92-14.7-14.93-25.33-.58-6.19.83-11,3.88-13.2,2.13-1.53,4.81-1.62,7.75-.26,7.22,3.34,13.92,14.7,14.92,25.33.59,6.19-.83,11-3.88,13.2A6.34,6.34,0,0,1,138.63,201.84Zm-12.44-39.92A5.67,5.67,0,0,0,123.4,163c-2.79,2-4.13,6.7-3.58,12.54,1,10.4,7.49,21.5,14.51,24.74,2.69,1.24,5.12,1.18,7-.19,2.8-2,4.14-6.7,3.59-12.54-1-10.4-7.49-21.5-14.51-24.74A8.3,8.3,0,0,0,126.19,161.92Z"/><path class="cls-2" d="M221.86,89.83c-15-2.25-41.53-.23-69.39,30.59L140.8,122.3s-14.63,21-16.07,39.57c4.07-1.63,12.47,2.34,18,15.49s.71,20.94.71,20.94l5.13,5.91a62.42,62.42,0,0,0,42.95,21.52c12.39.82,25.11-.39,34.55-3.16a69,69,0,0,0,11.44-4.44c10.55-5.31,16.43-10.76,19.66-14.8a22.13,22.13,0,0,0-.06-3.36h0v-.23A66,66,0,0,1,236.85,215,60.46,60.46,0,0,1,226,219c-8.7,2.37-20.14,3.48-31.53,2.94a62.43,62.43,0,0,1-46.39-24.46l-1.39-1.8a34.69,34.69,0,0,0-.35-14.4,40.4,40.4,0,0,0-7.08-14.06s6.39-33.13,46.83-56.46c24-13.84,42.68-12.12,54.93-7.39A79.66,79.66,0,0,0,221.86,89.83Z"/><path class="cls-9" d="M137.22,166c7.55-22.56,22.25-40.91,45.75-55.38,19.66-12.1,37.93-14.86,55.32-9.75a79.16,79.16,0,0,0-13.76-9.62c-.07,0-22.1-3.66-43.5,8.29s-27.66,22.87-27.66,22.87L141,124.18s-13.35,21.71-14.56,36.21a14,14,0,0,1,4,.64l.47-1.39a10.91,10.91,0,0,1,3.51,1.75l-.6,1.74A24.59,24.59,0,0,1,137.22,166Z"/><path class="cls-11" d="M116.42,166.14c-2.69,1.2-4.59,4.2-5.07,8.72-1,9,4.13,20.7,11.37,26.06,3.63,2.68,7.11,3.27,9.8,2.07l6.25-2.79c2.69-1.2,4.59-4.2,5.08-8.72,1-9-4.13-20.69-11.38-26-3.63-2.68-7.1-3.28-9.8-2.08C121,164.09,118.06,165.41,116.42,166.14Z"/><path class="cls-9" d="M116.42,166.14c-2.69,1.2-4.59,4.2-5.07,8.72-1,9,4.13,20.7,11.37,26.06,3.63,2.68,7.11,3.27,9.8,2.07l6.25-2.79c2.69-1.2,4.59-4.2,5.08-8.72,1-9-4.13-20.69-11.38-26-3.63-2.68-7.1-3.28-9.8-2.08C121,164.09,118.06,165.41,116.42,166.14Z"/><path class="cls-11" d="M122.72,200.92c3.63,2.68,7.11,3.27,9.8,2.07s4.59-4.21,5.08-8.72c1-9-4.13-20.7-11.38-26.06-3.63-2.68-7.1-3.27-9.8-2.07s-4.59,4.2-5.07,8.72C110.38,183.89,115.48,195.56,122.72,200.92Z"/><path class="cls-11" d="M122.72,200.92c3.63,2.68,7.11,3.27,9.8,2.07s4.59-4.21,5.08-8.72c1-9-4.13-20.7-11.38-26.06-3.63-2.68-7.1-3.27-9.8-2.07s-4.59,4.2-5.07,8.72C110.38,183.89,115.48,195.56,122.72,200.92Z"/><path class="cls-2" d="M132.27,190.68c.45-5.59-2.88-12.71-7.44-15.89-2.29-1.6-4.45-1.91-6.09-1.12-.5.25-3.85,1.84-4.36,2.08-1.65.78-2.78,2.67-3,5.47-.45,5.59,2.88,12.71,7.44,15.89,2.29,1.6,4.45,1.91,6.09,1.12l4.38-2.09C130.92,195.35,132,193.47,132.27,190.68Z"/><path class="cls-16" d="M120.44,176.88c4.56,3.19,7.89,10.3,7.44,15.89s-4.51,7.53-9.07,4.34-7.89-10.3-7.44-15.89S115.89,173.69,120.44,176.88Z"/><path class="cls-13" d="M119.91,179.33a15.18,15.18,0,0,1,5.77,12.33c-.35,4.34-3.5,5.85-7,3.38a15.15,15.15,0,0,1-5.77-12.34C113.22,178.36,116.37,176.86,119.91,179.33Z"/><path class="cls-3" d="M123.26,183.64l-4.3,3.69-4.08-8.71c1.27-.62,3-.38,4.71.86A13.19,13.19,0,0,1,123.26,183.64Z"/><path class="cls-4" d="M125.37,191.82c-.18,2.16-1.05,3.62-2.33,4.23L119,187.33l4.3-3.69A14.76,14.76,0,0,1,125.37,191.82Z"/><path class="cls-3" d="M123,196.05c-1.27.61-2.94.37-4.71-.86a13,13,0,0,1-3.66-4.17l4.29-3.69Z"/><path class="cls-4" d="M119,187.33,114.67,191a14.67,14.67,0,0,1-2.11-8.17c.17-2.17,1-3.63,2.32-4.23Z"/><path class="cls-13" d="M144.1,163.19l-.26.74c-.6,1.66-1.08,3-1.54,4.07a39.09,39.09,0,0,1,7,18,20.74,20.74,0,0,1-.49,7.4l1.84,2.4,1.75,2.09c1.11-2.49,2.52-5.94,1.79-13.62S149.49,167.3,144.1,163.19Z"/><path class="cls-19" d="M265.64,154.19a82.05,82.05,0,0,1-.15,16.89,80.58,80.58,0,0,1-3.5,16c12.59-47.3-17.39-78.1-17.39-78.1-14-6.91-42.43-2.51-58.86,5.74,1.41-.92,2.86-1.85,4.37-2.77,19.73-12.13,46.79-9.65,54.26-5.25A80.44,80.44,0,0,1,265.64,154.19Z"/><path class="cls-20" d="M175.81,138.1c-6.1-1.74-14.42,9.48-17,16.47-2,5.19-2.08,11.33-1.3,16.65a18.79,18.79,0,0,0,1.89,5.89c1.77,3.39,5.68,6.38,9.48,3.85a12,12,0,0,0,3.67-4.78C175.65,170,187.52,141.44,175.81,138.1Zm-5.41,48.69a5.3,5.3,0,0,0-6.49,4.81,4.1,4.1,0,0,0,2.49,3.62,5.48,5.48,0,0,0,5.53-1.69C173.67,191.2,173.66,187.6,170.4,186.79Z"/></svg>