<svg id="레이어_1" data-name="레이어 1" xmlns="http://www.w3.org/2000/svg" xmlns:xlink="http://www.w3.org/1999/xlink" viewBox="0 0 66 63"><defs><style>.cls-1{fill:url(#무제_그라디언트_22);}.cls-2,.cls-4{fill:none;stroke:#000;stroke-linecap:round;}.cls-2{stroke-miterlimit:10;stroke-width:0.75px;}.cls-3{fill:#fff;}.cls-4{stroke-linejoin:round;stroke-width:0.8px;}</style><linearGradient id="무제_그라디언트_22" x1="12.2" y1="13.2" x2="51.8" y2="52.8" gradientUnits="userSpaceOnUse"><stop offset="0" stop-color="#fe89fe"/><stop offset="0.62" stop-color="#ae95f7"/><stop offset="1" stop-color="#09adea"/></linearGradient></defs><circle class="cls-1" cx="32" cy="33" r="28"/><path class="cls-2" d="M57.41,39.25H61.5"/><path class="cls-2" d="M62.5,35.6H58.2a27.95,27.95,0,1,0-1.78,6.52H60.5"/><path class="cls-3" d="M26.2,15H42a8,8,0,0,1,8,8v4.69A9.31,9.31,0,0,1,40.69,37H22a8,8,0,0,1-8-8V27.2A12.2,12.2,0,0,1,26.2,15Z"/><path class="cls-2" d="M25.2,14H41a8,8,0,0,1,8,8v4.69A9.31,9.31,0,0,1,39.69,36H21a8,8,0,0,1-8-8V26.2A12.2,12.2,0,0,1,25.2,14Z"/><path d="M23.51,24.48c-.24,1.24-1.26,3-2.76,2.45-1.21-.41-1.32-2.17-1.11-3.22C20,22.13,21,21,22,21.21,23.39,21.48,23.8,23.05,23.51,24.48Z"/><path d="M37.64,24.48c.24,1.24,1.27,3,2.77,2.45,1.2-.41,1.31-2.17,1.1-3.22-.31-1.58-1.37-2.7-2.37-2.5C37.77,21.48,37.36,23.05,37.64,24.48Z"/><path class="cls-4" d="M29,29.9a2.05,2.05,0,0,0,4,0"/><ellipse class="cls-3" cx="20.5" cy="22" rx="0.5" ry="1"/><ellipse class="cls-3" cx="38.5" cy="22" rx="0.5" ry="1"/><circle class="cls-3" cx="23.5" cy="47" r="1.5"/><circle class="cls-3" cx="31" cy="47" r="1.5"/><circle class="cls-3" cx="38.5" cy="47" r="1.5"/></svg>