<svg id="레이어_1" data-name="레이어 1" xmlns="http://www.w3.org/2000/svg" xmlns:xlink="http://www.w3.org/1999/xlink" viewBox="0 0 100 100"><defs><style>.cls-1{fill:url(#무제_그라디언트_22);}.cls-2,.cls-4{fill:none;stroke:#000;stroke-linecap:round;}.cls-2{stroke-miterlimit:10;stroke-width:1.23px;}.cls-3{fill:#fff;}.cls-4{stroke-linejoin:round;stroke-width:1.31px;}</style><linearGradient id="무제_그라디언트_22" x1="17.43" y1="18.93" x2="82.43" y2="83.93" gradientUnits="userSpaceOnUse"><stop offset="0" stop-color="#fe89fe"/><stop offset="0.62" stop-color="#ae95f7"/><stop offset="1" stop-color="#09adea"/></linearGradient></defs><circle class="cls-1" cx="49.93" cy="51.43" r="45.97"/><path class="cls-2" d="M91.65,61.68h6.71"/><path class="cls-2" d="M100,55.7H92.94A45.38,45.38,0,0,0,93.43,49,45.92,45.92,0,1,0,90,66.4h6.71"/><path class="cls-3" d="M40.41,21.88H66.35A13.13,13.13,0,0,1,79.48,35V42.7A15.29,15.29,0,0,1,64.19,58H33.51A13.13,13.13,0,0,1,20.38,44.86V41.91a20,20,0,0,1,20-20Z"/><path class="cls-2" d="M38.77,20.24H64.7A13.13,13.13,0,0,1,77.84,33.37v7.69A15.29,15.29,0,0,1,62.55,56.35H31.87A13.13,13.13,0,0,1,18.74,43.22V40.27a20,20,0,0,1,20-20Z"/><path d="M36,37.45c-.4,2-2.08,4.84-4.55,4-2-.67-2.15-3.57-1.81-5.27.51-2.6,2.25-4.44,3.89-4.12C35.79,32.52,36.46,35.09,36,37.45Z"/><path d="M59.19,37.45c.4,2,2.08,4.84,4.54,4,2-.67,2.16-3.57,1.82-5.27-.52-2.6-2.26-4.44-3.89-4.12C59.4,32.52,58.73,35.09,59.19,37.45Z"/><path class="cls-4" d="M45.06,46.35a3.37,3.37,0,0,0,6.57,0"/><ellipse class="cls-3" cx="31.05" cy="33.37" rx="0.82" ry="1.64"/><ellipse class="cls-3" cx="60.6" cy="33.37" rx="0.82" ry="1.64"/><circle class="cls-3" cx="35.98" cy="74.41" r="2.46"/><circle class="cls-3" cx="48.29" cy="74.41" r="2.46"/><circle class="cls-3" cx="60.6" cy="74.41" r="2.46"/></svg>