<svg id="레이어_1" data-name="레이어 1" xmlns="http://www.w3.org/2000/svg" xmlns:xlink="http://www.w3.org/1999/xlink" viewBox="0 0 68.33 68.33"><defs><style>.cls-1{fill:url(#무제_그라디언트_71);}.cls-2{fill:url(#무제_그라디언트_8);}.cls-3{fill:#fff;}</style><linearGradient id="무제_그라디언트_71" x1="5.16" y1="4.64" x2="58.26" y2="59.67" gradientUnits="userSpaceOnUse"><stop offset="0" stop-color="#fefffe"/><stop offset="0.04" stop-color="#fefbfe"/><stop offset="0.07" stop-color="#feeefe"/><stop offset="0.11" stop-color="#fed9fe"/><stop offset="0.15" stop-color="#febbfe"/><stop offset="0.19" stop-color="#fe96fe"/><stop offset="0.2" stop-color="#fe89fe"/><stop offset="0.29" stop-color="#f988fd"/><stop offset="0.39" stop-color="#eb84fc"/><stop offset="0.5" stop-color="#d47ff9"/><stop offset="0.61" stop-color="#b377f6"/><stop offset="0.72" stop-color="#8a6cf1"/><stop offset="0.84" stop-color="#5760ec"/><stop offset="0.87" stop-color="#485cea"/><stop offset="1" stop-color="#0047ea"/></linearGradient><linearGradient id="무제_그라디언트_8" x1="12.53" y1="23.94" x2="51.73" y2="42.61" gradientUnits="userSpaceOnUse"><stop offset="0" stop-color="#4412e7"/><stop offset="0.05" stop-color="#5a14eb"/><stop offset="0.1" stop-color="#6b15ee"/><stop offset="0.17" stop-color="#7616f0"/><stop offset="0.27" stop-color="#7d17f2"/><stop offset="0.54" stop-color="#7f17f2"/><stop offset="0.71" stop-color="#7d17f2"/><stop offset="0.81" stop-color="#7416f0"/><stop offset="0.89" stop-color="#6615ed"/><stop offset="0.96" stop-color="#5213ea"/><stop offset="1" stop-color="#4412e7"/></linearGradient></defs><path class="cls-1" d="M67.79,62.12q-2.7-6.24-5.38-12.49c-.15-.35,1.67-3.15,1.89-3.64a31.66,31.66,0,0,0,1.44-4,29.44,29.44,0,0,0,1.15-8.3,28.49,28.49,0,0,0-5.38-16.34C53.66,6.39,39.25.66,26.05,3.81,13.57,6.79,2,17.48.83,30.72A31.88,31.88,0,0,0,6,51.05c8.26,12.3,23.49,16.36,37.42,13.19,3.9-.89,7.83-2,11.82-1.74,2.69.21,5.29,1.08,8,1.37,1.06.11,2.12.13,3.19.15C67.82,64.05,68.32,63.35,67.79,62.12Z"/><path class="cls-2" d="M22.4,19.84a80.19,80.19,0,0,1,8.89-.66C37.67,19,44.71,19,50.86,20.87a11.63,11.63,0,0,1,5.76,3.72,15.58,15.58,0,0,1,2.94,9.53v.58A17,17,0,0,1,58.5,41a11.51,11.51,0,0,1-6.28,5.87,27.53,27.53,0,0,1-7.89,1.86,137.78,137.78,0,0,1-15.07.62,32.82,32.82,0,0,1-11.93-1.66,13.74,13.74,0,0,1-7.08-5.72A13.92,13.92,0,0,1,9,39.18l-.12-.39C7.62,34.38,8.09,28,11.22,24.42c2.39-2.75,6.15-3.79,9.62-4.35Z"/><path class="cls-3" d="M20.7,29.63s-1.93-.48-3.14,1.93.24,5.31,1.93,5.56a3.2,3.2,0,0,0,3.62-2.42C23.59,33,23.35,29.63,20.7,29.63Z"/><path class="cls-3" d="M47.24,29.63s1.93-.48,3.14,1.93-.24,5.31-1.93,5.56a3.2,3.2,0,0,1-3.62-2.42C44.35,33,44.59,29.63,47.24,29.63Z"/><path class="cls-3" d="M33.65,42.12A3.88,3.88,0,0,1,32,41.77a6.71,6.71,0,0,1-2.83-3.08.6.6,0,1,1,1.1-.49h0a5.5,5.5,0,0,0,2.24,2.47c1.25.58,3.2.22,4.9-2.54a.6.6,0,0,1,.83-.2.61.61,0,0,1,.2.83C36.94,41.24,35.17,42.12,33.65,42.12Z"/><path class="cls-3" d="M10,32.17A9,9,0,0,1,10.47,28a10,10,0,0,1,2.23-3.6,11.51,11.51,0,0,1,3.49-2.38,20.21,20.21,0,0,1,2-.72c.69-.14,1.37-.28,2.05-.39-.64.27-1.3.47-1.93.73a19.44,19.44,0,0,0-1.84.88,14,14,0,0,0-3.22,2.39A11.67,11.67,0,0,0,11,28.24,12.4,12.4,0,0,0,10,32.17Z"/></svg>