<svg id="logo-white" data-name="logo-white" xmlns="http://www.w3.org/2000/svg" xmlns:xlink="http://www.w3.org/1999/xlink" viewBox="0 0 255 42"><defs><style>.cls-1{fill:lime;}.cls-2{fill:#7ac943;}.cls-3{fill:url(#무제_그라디언트_10);}.cls-4{fill:url(#무제_그라디언트_10-2);}.cls-5{fill:url(#무제_그라디언트_10-3);}.cls-6{fill:url(#무제_그라디언트_10-4);}.cls-7{fill:url(#무제_그라디언트_10-5);}.cls-8{fill:url(#무제_그라디언트_10-6);}.cls-9{fill:url(#무제_그라디언트_10-7);}.cls-10{fill:url(#무제_그라디언트_10-8);}.cls-11{fill:url(#무제_그라디언트_10-9);}.cls-12{fill:url(#무제_그라디언트_10-10);}.cls-13{fill:url(#무제_그라디언트_10-11);}.cls-14{fill:url(#무제_그라디언트_10-12);}.cls-15{fill:url(#무제_그라디언트_26);}.cls-16{fill:url(#무제_그라디언트_26-2);}.cls-17{fill:url(#무제_그라디언트_15);}.cls-18{fill:#4412e7;}.cls-19{fill:url(#무제_그라디언트_15-2);}.cls-20{fill:#fff;}</style><linearGradient id="무제_그라디언트_10" x1="15.51" y1="-5.46" x2="43.1" y2="27.51" gradientUnits="userSpaceOnUse"><stop offset="0" stop-color="#2af599"/><stop offset="0.5" stop-color="#09adea"/><stop offset="1" stop-color="#fe89fe"/></linearGradient><linearGradient id="무제_그라디언트_10-2" x1="3.57" y1="4.53" x2="31.16" y2="37.5" xlink:href="#무제_그라디언트_10"/><linearGradient id="무제_그라디언트_10-3" x1="17.76" y1="-7.35" x2="45.35" y2="25.62" xlink:href="#무제_그라디언트_10"/><linearGradient id="무제_그라디언트_10-4" x1="18.76" y1="-8.18" x2="46.35" y2="24.79" xlink:href="#무제_그라디언트_10"/><linearGradient id="무제_그라디언트_10-5" x1="10.46" y1="-1.24" x2="38.05" y2="31.73" xlink:href="#무제_그라디언트_10"/><linearGradient id="무제_그라디언트_10-6" x1="-3.77" y1="10.67" x2="23.82" y2="43.64" xlink:href="#무제_그라디언트_10"/><linearGradient id="무제_그라디언트_10-7" x1="-6.43" y1="12.9" x2="21.16" y2="45.87" xlink:href="#무제_그라디언트_10"/><linearGradient id="무제_그라디언트_10-8" x1="8.49" y1="0.41" x2="36.08" y2="33.38" xlink:href="#무제_그라디언트_10"/><linearGradient id="무제_그라디언트_10-9" x1="14.51" y1="-4.63" x2="42.1" y2="28.34" xlink:href="#무제_그라디언트_10"/><linearGradient id="무제_그라디언트_10-10" x1="1.44" y1="6.31" x2="29.04" y2="39.28" xlink:href="#무제_그라디언트_10"/><linearGradient id="무제_그라디언트_10-11" x1="-7.58" y1="13.86" x2="20.01" y2="46.83" xlink:href="#무제_그라디언트_10"/><linearGradient id="무제_그라디언트_10-12" x1="-2.92" y1="9.96" x2="24.67" y2="42.93" xlink:href="#무제_그라디언트_10"/><linearGradient id="무제_그라디언트_26" x1="18.81" y1="26.18" x2="18.81" y2="11.75" gradientUnits="userSpaceOnUse"><stop offset="0" stop-color="#a100f3"/><stop offset="1" stop-color="#4412e7"/></linearGradient><linearGradient id="무제_그라디언트_26-2" x1="23.72" y1="26.18" x2="23.72" y2="11.75" xlink:href="#무제_그라디언트_26"/><linearGradient id="무제_그라디언트_15" x1="11.35" y1="19.01" x2="11.78" y2="22.58" gradientUnits="userSpaceOnUse"><stop offset="0" stop-color="#8217f3"/><stop offset="1" stop-color="#4412e7"/></linearGradient><linearGradient id="무제_그라디언트_15-2" x1="27.22" y1="23.42" x2="35.09" y2="23.42" xlink:href="#무제_그라디언트_15"/></defs><circle class="cls-1" cx="21.27" cy="3.45" r="0.93"/><circle class="cls-2" cx="21.27" cy="38.86" r="0.93"/><path class="cls-3" d="M37.63,21a13.07,13.07,0,0,1-.87,4.69,1,1,0,0,0,.49,1.23h0a1,1,0,0,0,1.3-.52,14.94,14.94,0,0,0,0-10.8,1,1,0,0,0-1.3-.52h0a1,1,0,0,0-.49,1.23A13.07,13.07,0,0,1,37.63,21Z"/><path class="cls-4" d="M24.44,38.45h0a1,1,0,0,0,1.11.87,15,15,0,0,0,9.34-5.4,1,1,0,0,0-.2-1.39h0a1,1,0,0,0-1.31.18,13,13,0,0,1-8.12,4.7A1,1,0,0,0,24.44,38.45Z"/><path class="cls-5" d="M34.07,9.58h0a1,1,0,0,0,.2-1.39,15,15,0,0,0-9.34-5.4,1,1,0,0,0-1.1.87h0a1,1,0,0,0,.81,1,13.06,13.06,0,0,1,8.12,4.7A1,1,0,0,0,34.07,9.58Z"/><circle class="cls-6" cx="35.99" cy="12.4" r="0.93"/><circle class="cls-7" cx="36.61" cy="30.01" r="0.93"/><path class="cls-8" d="M4.9,21a13.07,13.07,0,0,0,.87,4.69,1,1,0,0,1-.48,1.23h0A1,1,0,0,1,4,26.4,15.08,15.08,0,0,1,4,15.6a1,1,0,0,1,1.3-.52h0a1,1,0,0,1,.48,1.23A13.07,13.07,0,0,0,4.9,21Z"/><path class="cls-9" d="M18.09,38.45h0a1,1,0,0,1-1.1.87,15,15,0,0,1-9.34-5.4,1,1,0,0,1,.2-1.39h0a1,1,0,0,1,1.3.18,13,13,0,0,0,8.13,4.7A1,1,0,0,1,18.09,38.45Z"/><path class="cls-10" d="M8.47,9.58h0a1,1,0,0,1-.2-1.39,15,15,0,0,1,9.33-5.4,1,1,0,0,1,1.11.87h0a1,1,0,0,1-.81,1,13.06,13.06,0,0,0-8.13,4.7A1,1,0,0,1,8.47,9.58Z"/><circle class="cls-11" cx="21.27" cy="3.45" r="0.93"/><circle class="cls-12" cx="6.55" cy="12.4" r="0.93"/><circle class="cls-13" cx="5.93" cy="30.01" r="0.93"/><circle class="cls-14" cx="21.27" cy="38.86" r="0.93"/><path class="cls-15" d="M20.72,21.91a.93.93,0,0,0-.81.57l-4,11.18a.4.4,0,0,0,.4.57h.61a.93.93,0,0,0,.81-.57l4-11.18a.4.4,0,0,0-.4-.57Z"/><path class="cls-16" d="M26.64,8.34a.4.4,0,0,0-.4-.57h-.6a1,1,0,0,0-.82.57l-4,11.18a.4.4,0,0,0,.4.57h.6a1,1,0,0,0,.82-.57Z"/><path class="cls-17" d="M9.33,23.24,7.56,21.71a.56.56,0,0,1,0-.87l6.61-5.63a.68.68,0,0,1,.87,0h0A.48.48,0,0,1,15,16L8.81,21.28l1.39,1.2a.49.49,0,0,1,0,.76h0A.68.68,0,0,1,9.33,23.24Z"/><path class="cls-18" d="M14.17,27.43l-3-2.63a.49.49,0,0,1,0-.76h0A.68.68,0,0,1,12,24l3,2.63a.49.49,0,0,1,0,.76h0A.68.68,0,0,1,14.17,27.43Z"/><path class="cls-19" d="M33.11,19.4l1.77,1.53a.56.56,0,0,1,0,.87l-6.6,5.63a.69.69,0,0,1-.88,0h0a.49.49,0,0,1,0-.76l6.22-5.31-1.39-1.2a.49.49,0,0,1,0-.76h0A.68.68,0,0,1,33.11,19.4Z"/><path class="cls-18" d="M28.28,15.21l3,2.63a.48.48,0,0,1,0,.76h0a.68.68,0,0,1-.87,0L27.4,16a.49.49,0,0,1,0-.76h0A.69.69,0,0,1,28.28,15.21Z"/><path class="cls-20" d="M72.68,26.48C72.68,30.17,70,34,62.83,34a13.64,13.64,0,0,1-10.26-4l2-2.45a11.18,11.18,0,0,0,8.37,3.69c4.77,0,6.29-2.44,6.29-4.45,0-6.57-15.82-2.88-15.82-12,0-4.2,3.93-7.13,9.21-7.13a12.92,12.92,0,0,1,9.46,3.57l-2,2.32a10.41,10.41,0,0,0-7.74-3c-3.16,0-5.48,1.64-5.48,4C56.86,20.23,72.68,17,72.68,26.48Z"/><path class="cls-20" d="M75.89,33.53V8h3.32V33.53Z"/><path class="cls-20" d="M91.51,8.1c8.34,0,13.7,5.52,13.7,12.73s-5.36,12.74-13.7,12.74H82.38V30.73h9.13c6.49,0,10.26-4.45,10.26-9.94s-3.65-9.93-10.26-9.93H85.7V27.93H82.38V8h9.13Z"/><path class="cls-20" d="M126,8v2.85H111.79v5.45h-3.33V8Zm-.28,13.91H108.46V19.07h17.23Zm-13.9,8.77H126v2.84H108.46V24.68h3.33Z"/><path class="cls-20" d="M148,31a10.49,10.49,0,0,0,2.28-.24l2.33,2.32a14.78,14.78,0,0,1-4.69.72c-7.89,0-13.26-5.65-13.26-13.18s5.37-13.18,13.26-13.18,13.3,5.65,13.3,13.18a13.9,13.9,0,0,1-2,7.34l-2.45-2.45a12,12,0,0,0,1-4.89c0-6-3.88-10.37-9.85-10.37s-9.82,4.4-9.82,10.37S141.93,31,147.94,31Zm10.22,3.85L150,26.64l2-2,8.21,8.21Z"/><path class="cls-20" d="M164.45,19.35V8h3.37V19.35Zm18.47,4.21v-1.4h3.36V23.6c0,6.33-3.68,10.37-10.93,10.37s-10.9-4.08-10.9-10.37V22.12h3.37v1.4c0,4.64,2.6,7.61,7.53,7.61s7.57-3,7.57-7.61Zm0-4.21V8h3.36V19.35Z"/><path class="cls-20" d="M207,8v2.85H192.82v5.45H189.5V8Zm-.28,13.91H189.5V19.07h17.22Zm-13.9,8.77H207v2.84H189.5V24.68h3.32Z"/><path class="cls-20" d="M230.32,26.48c0,3.69-2.64,7.49-9.85,7.49a13.64,13.64,0,0,1-10.26-4l2-2.45a11.2,11.2,0,0,0,8.38,3.69c4.76,0,6.29-2.44,6.29-4.45,0-6.57-15.83-2.88-15.83-12,0-4.2,3.93-7.13,9.22-7.13a12.91,12.91,0,0,1,9.45,3.57l-2,2.32a10.41,10.41,0,0,0-7.73-3c-3.17,0-5.49,1.64-5.49,4C214.5,20.23,230.32,17,230.32,26.48Z"/><path class="cls-20" d="M232.73,10.86V8H253v2.85Zm8.45,22.67V13.62h3.33V33.53Z"/></svg>