<svg id="symbol" data-name="symbol" xmlns="http://www.w3.org/2000/svg" xmlns:xlink="http://www.w3.org/1999/xlink" viewBox="0 0 100 100"><defs><style>.cls-1{fill:lime;}.cls-2{fill:#7ac943;}.cls-3{fill:url(#무제_그라디언트_10);}.cls-4{fill:url(#무제_그라디언트_10-2);}.cls-5{fill:url(#무제_그라디언트_10-3);}.cls-6{fill:url(#무제_그라디언트_10-4);}.cls-7{fill:url(#무제_그라디언트_10-5);}.cls-8{fill:url(#무제_그라디언트_10-6);}.cls-9{fill:url(#무제_그라디언트_10-7);}.cls-10{fill:url(#무제_그라디언트_10-8);}.cls-11{fill:url(#무제_그라디언트_10-9);}.cls-12{fill:url(#무제_그라디언트_10-10);}.cls-13{fill:url(#무제_그라디언트_10-11);}.cls-14{fill:url(#무제_그라디언트_10-12);}.cls-15{fill:url(#무제_그라디언트_26);}.cls-16{fill:url(#무제_그라디언트_26-2);}.cls-17{fill:url(#무제_그라디언트_15);}.cls-18{fill:#4412e7;}.cls-19{fill:url(#무제_그라디언트_15-2);}</style><linearGradient id="무제_그라디언트_10" x1="37.09" y1="-9.02" x2="98.94" y2="64.89" gradientUnits="userSpaceOnUse"><stop offset="0" stop-color="#2af599"/><stop offset="0.5" stop-color="#09adea"/><stop offset="1" stop-color="#fe89fe"/></linearGradient><linearGradient id="무제_그라디언트_10-2" x1="10.32" y1="13.39" x2="72.17" y2="87.29" xlink:href="#무제_그라디언트_10"/><linearGradient id="무제_그라디언트_10-3" x1="42.14" y1="-13.24" x2="103.99" y2="60.66" xlink:href="#무제_그라디언트_10"/><linearGradient id="무제_그라디언트_10-4" x1="44.37" y1="-15.11" x2="106.23" y2="58.79" xlink:href="#무제_그라디언트_10"/><linearGradient id="무제_그라디언트_10-5" x1="25.77" y1="0.46" x2="87.62" y2="74.36" xlink:href="#무제_그라디언트_10"/><linearGradient id="무제_그라디언트_10-6" x1="-6.12" y1="27.15" x2="55.73" y2="101.05" xlink:href="#무제_그라디언트_10"/><linearGradient id="무제_그라디언트_10-7" x1="-12.09" y1="32.15" x2="49.76" y2="106.05" xlink:href="#무제_그라디언트_10"/><linearGradient id="무제_그라디언트_10-8" x1="21.35" y1="4.16" x2="83.2" y2="78.06" xlink:href="#무제_그라디언트_10"/><linearGradient id="무제_그라디언트_10-9" x1="34.85" y1="-7.14" x2="96.7" y2="66.76" xlink:href="#무제_그라디언트_10"/><linearGradient id="무제_그라디언트_10-10" x1="5.56" y1="17.37" x2="67.42" y2="91.27" xlink:href="#무제_그라디언트_10"/><linearGradient id="무제_그라디언트_10-11" x1="-14.67" y1="34.3" x2="47.18" y2="108.21" xlink:href="#무제_그라디언트_10"/><linearGradient id="무제_그라디언트_10-12" x1="-4.22" y1="25.56" x2="57.63" y2="99.46" xlink:href="#무제_그라디언트_10"/><linearGradient id="무제_그라디언트_26" x1="44.49" y1="61.9" x2="44.49" y2="29.56" gradientUnits="userSpaceOnUse"><stop offset="0" stop-color="#a100f3"/><stop offset="1" stop-color="#4412e7"/></linearGradient><linearGradient id="무제_그라디언트_26-2" x1="55.51" y1="61.9" x2="55.51" y2="29.56" xlink:href="#무제_그라디언트_26"/><linearGradient id="무제_그라디언트_15" x1="27.78" y1="45.83" x2="28.73" y2="53.85" gradientUnits="userSpaceOnUse"><stop offset="0" stop-color="#8217f3"/><stop offset="1" stop-color="#4412e7"/></linearGradient><linearGradient id="무제_그라디언트_15-2" x1="63.35" y1="55.72" x2="80.98" y2="55.72" xlink:href="#무제_그라디언트_15"/></defs><circle class="cls-1" cx="50" cy="10.96" r="2.08"/><circle class="cls-2" cx="50" cy="90.34" r="2.08"/><path class="cls-3" d="M86.68,50.3a29.17,29.17,0,0,1-2,10.52,2.17,2.17,0,0,0,1.09,2.75h0a2.16,2.16,0,0,0,2.92-1.17,33.66,33.66,0,0,0,0-24.2A2.17,2.17,0,0,0,85.83,37h0a2.17,2.17,0,0,0-1.09,2.75A29.11,29.11,0,0,1,86.68,50.3Z"/><path class="cls-4" d="M57.12,89.41h0a2.16,2.16,0,0,0,2.48,2,33.66,33.66,0,0,0,20.93-12.1,2.16,2.16,0,0,0-.45-3.12h0a2.17,2.17,0,0,0-2.92.42A29.31,29.31,0,0,1,58.94,87.09,2.16,2.16,0,0,0,57.12,89.41Z"/><path class="cls-5" d="M78.69,24.7h0a2.15,2.15,0,0,0,.45-3.12A33.61,33.61,0,0,0,58.21,9.48a2.16,2.16,0,0,0-2.48,1.94h0a2.17,2.17,0,0,0,1.83,2.32A29.24,29.24,0,0,1,75.77,24.28,2.17,2.17,0,0,0,78.69,24.7Z"/><circle class="cls-6" cx="83" cy="31.04" r="2.08"/><circle class="cls-7" cx="84.38" cy="70.49" r="2.08"/><path class="cls-8" d="M13.32,50.3a29.17,29.17,0,0,0,1.95,10.52,2.17,2.17,0,0,1-1.09,2.75h0a2.16,2.16,0,0,1-2.92-1.17,33.66,33.66,0,0,1,0-24.2A2.17,2.17,0,0,1,14.17,37h0a2.17,2.17,0,0,1,1.09,2.75A29.11,29.11,0,0,0,13.32,50.3Z"/><path class="cls-9" d="M42.88,89.41h0a2.16,2.16,0,0,1-2.48,2,33.66,33.66,0,0,1-20.93-12.1,2.16,2.16,0,0,1,.45-3.12h0a2.17,2.17,0,0,1,2.92.42A29.31,29.31,0,0,0,41.06,87.09,2.16,2.16,0,0,1,42.88,89.41Z"/><path class="cls-10" d="M21.31,24.7h0a2.15,2.15,0,0,1-.45-3.12A33.61,33.61,0,0,1,41.79,9.48a2.16,2.16,0,0,1,2.48,1.94h0a2.17,2.17,0,0,1-1.83,2.32A29.24,29.24,0,0,0,24.23,24.28,2.17,2.17,0,0,1,21.31,24.7Z"/><circle class="cls-11" cx="50" cy="10.96" r="2.08"/><circle class="cls-12" cx="17" cy="31.04" r="2.08"/><circle class="cls-13" cx="15.62" cy="70.49" r="2.08"/><circle class="cls-14" cx="50" cy="90.34" r="2.08"/><path class="cls-15" d="M48.78,52.34A2.08,2.08,0,0,0,47,53.62L38,78.67a.89.89,0,0,0,.9,1.28h1.36A2.07,2.07,0,0,0,42,78.67l9-25.05a.9.9,0,0,0-.9-1.28Z"/><path class="cls-16" d="M62.05,21.93a.89.89,0,0,0-.9-1.28H59.79A2.09,2.09,0,0,0,58,21.93L49,47a.9.9,0,0,0,.9,1.28h1.36A2.06,2.06,0,0,0,53,47Z"/><path class="cls-17" d="M23.24,55.32l-4-3.43a1.25,1.25,0,0,1,0-1.94l14.8-12.64a1.54,1.54,0,0,1,2,0h0A1.08,1.08,0,0,1,36,39l-14,11.91,3.11,2.7a1.07,1.07,0,0,1,0,1.69h0A1.52,1.52,0,0,1,23.24,55.32Z"/><path class="cls-18" d="M34.08,64.72l-6.81-5.9a1.09,1.09,0,0,1,0-1.7h0a1.54,1.54,0,0,1,2,0L36,63a1.09,1.09,0,0,1,0,1.7h0A1.54,1.54,0,0,1,34.08,64.72Z"/><path class="cls-19" d="M76.55,46.72l4,3.43a1.24,1.24,0,0,1,0,1.94L65.71,64.73a1.54,1.54,0,0,1-2,0h0a1.08,1.08,0,0,1,0-1.69L77.71,51.11l-3.11-2.7a1.08,1.08,0,0,1,0-1.69h0A1.52,1.52,0,0,1,76.55,46.72Z"/><path class="cls-18" d="M65.71,37.32l6.81,5.9a1.09,1.09,0,0,1,0,1.7h0a1.54,1.54,0,0,1-2,0L63.75,39a1.09,1.09,0,0,1,0-1.7h0A1.54,1.54,0,0,1,65.71,37.32Z"/></svg>